<svg width="172" height="41" viewBox="0 0 172 41" fill="none" xmlns="http://www.w3.org/2000/svg">
<path fill-rule="evenodd" clip-rule="evenodd" d="M20.5267 40.0782C31.591 40.0782 40.5604 31.1088 40.5604 20.0445C40.5604 12.8801 36.7997 6.59417 31.1447 3.05288L31.1751 3.07567L26.5295 7.66546C24.1726 9.99405 24.1519 13.7931 26.4832 16.1472C28.7984 18.485 28.7964 22.2519 26.4788 24.5873L12.686 38.4858C15.0941 39.511 17.7442 40.0782 20.5267 40.0782ZM9.36237 36.6815L13.2385 32.8444C15.5503 30.5558 15.5682 26.8261 13.2784 24.5155C11.0035 22.2199 11.0041 18.5197 13.2798 16.2249L27.9506 1.43132C25.6547 0.514796 23.1496 0.0107422 20.5267 0.0107422C9.46233 0.0107422 0.49292 8.98015 0.49292 20.0445C0.49292 26.9756 4.01272 33.0846 9.36237 36.6815Z" fill="url(#paint0_linear_2_23396)"/>
<path d="M49.7326 14.2185V10.8772H65.4748V14.2185H59.6065V30.0449H55.6008V14.2185H49.7326ZM72.4591 30.3257C70.9803 30.3257 69.7075 30.0262 68.6405 29.4272C67.5798 28.822 66.7624 27.9672 66.1884 26.8628C65.6144 25.7522 65.3274 24.4387 65.3274 22.9226C65.3274 21.4438 65.6144 20.146 66.1884 19.0291C66.7624 17.9122 67.5705 17.0418 68.6124 16.4179C69.6607 15.7939 70.8899 15.482 72.3 15.482C73.2484 15.482 74.1313 15.6348 74.9486 15.9406C75.7723 16.2401 76.4898 16.6924 77.1013 17.2977C77.719 17.9029 78.1994 18.6641 78.5426 19.5813C78.8858 20.4923 79.0573 21.5592 79.0573 22.7822V23.8772H66.9184V21.4064H75.3043C75.3043 20.8323 75.1795 20.3238 74.9299 19.8808C74.6803 19.4378 74.3341 19.0915 73.8911 18.8419C73.4543 18.5861 72.9458 18.4582 72.3655 18.4582C71.7603 18.4582 71.2237 18.5986 70.7557 18.8794C70.294 19.1539 69.9321 19.5252 69.67 19.9931C69.408 20.4548 69.2738 20.9696 69.2676 21.5374V23.8866C69.2676 24.5979 69.3986 25.2124 69.6607 25.7303C69.929 26.2482 70.3065 26.6475 70.7931 26.9283C71.2798 27.2091 71.857 27.3495 72.5246 27.3495C72.9676 27.3495 73.3732 27.2871 73.7413 27.1623C74.1094 27.0375 74.4245 26.8503 74.6866 26.6007C74.9486 26.3511 75.1483 26.0454 75.2856 25.6835L78.9731 25.9269C78.7859 26.8129 78.4022 27.5866 77.8219 28.248C77.2479 28.9031 76.5054 29.4147 75.5944 29.7829C74.6897 30.1448 73.6446 30.3257 72.4591 30.3257ZM88.1545 30.3257C86.682 30.3257 85.4154 30.0137 84.3547 29.3898C83.3002 28.7596 82.4891 27.8861 81.9213 26.7692C81.3597 25.6523 81.0789 24.367 81.0789 22.9132C81.0789 21.4407 81.3628 20.1491 81.9306 19.0385C82.5047 17.9216 83.3189 17.0512 84.3734 16.4272C85.4279 15.7971 86.682 15.482 88.1358 15.482C89.3899 15.482 90.4881 15.7097 91.4302 16.1652C92.3724 16.6207 93.118 17.2602 93.6671 18.0838C94.2162 18.9074 94.5188 19.8746 94.5749 20.9852H90.8125C90.7065 20.2677 90.4257 19.6905 89.9702 19.2537C89.521 18.8107 88.9313 18.5892 88.2013 18.5892C87.5836 18.5892 87.0439 18.7577 86.5822 19.0946C86.1267 19.4253 85.771 19.9089 85.5152 20.5453C85.2594 21.1817 85.1315 21.9523 85.1315 22.857C85.1315 23.7742 85.2563 24.5542 85.5058 25.1968C85.7617 25.8395 86.1204 26.3293 86.5822 26.6662C87.0439 27.0032 87.5836 27.1716 88.2013 27.1716C88.6568 27.1716 89.0655 27.078 89.4274 26.8909C89.7955 26.7037 90.0981 26.4323 90.3352 26.0766C90.5785 25.7147 90.7377 25.2811 90.8125 24.7757H94.5749C94.5125 25.8738 94.213 26.8409 93.6765 27.677C93.1461 28.5069 92.413 29.1558 91.477 29.6238C90.5411 30.0917 89.4336 30.3257 88.1545 30.3257ZM101.115 21.7339V30.0449H97.1277V10.8772H101.002V18.2055H101.171C101.495 17.3569 102.019 16.6924 102.743 16.212C103.467 15.7253 104.375 15.482 105.467 15.482C106.465 15.482 107.335 15.7004 108.078 16.1371C108.827 16.5676 109.407 17.1885 109.819 17.9996C110.237 18.8045 110.443 19.7685 110.436 20.8916V30.0449H106.449V21.6029C106.456 20.7169 106.231 20.0274 105.776 19.5345C105.326 19.0416 104.696 18.7951 103.885 18.7951C103.342 18.7951 102.862 18.9106 102.444 19.1414C102.032 19.3723 101.707 19.7092 101.47 20.1522C101.239 20.589 101.121 21.1162 101.115 21.7339ZM113.649 30.0449V10.8772H117.636V18.0838H117.758C117.932 17.697 118.185 17.3039 118.516 16.9046C118.853 16.499 119.29 16.1621 119.826 15.8938C120.369 15.6192 121.043 15.482 121.848 15.482C122.896 15.482 123.863 15.7565 124.749 16.3056C125.635 16.8484 126.343 17.6689 126.874 18.7671C127.404 19.859 127.669 21.2285 127.669 22.8758C127.669 24.4793 127.41 25.8333 126.892 26.9377C126.381 28.0358 125.682 28.8688 124.796 29.4366C123.916 29.9981 122.93 30.2789 121.838 30.2789C121.065 30.2789 120.406 30.151 119.864 29.8952C119.327 29.6394 118.887 29.318 118.544 28.9312C118.201 28.5381 117.939 28.1419 117.758 27.7426H117.58V30.0449H113.649ZM117.552 22.857C117.552 23.7118 117.67 24.4575 117.907 25.0939C118.145 25.7303 118.488 26.2264 118.937 26.582C119.386 26.9314 119.932 27.1061 120.575 27.1061C121.224 27.1061 121.773 26.9283 122.222 26.5726C122.671 26.2108 123.011 25.7116 123.242 25.0752C123.479 24.4325 123.598 23.6931 123.598 22.857C123.598 22.0272 123.482 21.2972 123.252 20.667C123.021 20.0368 122.681 19.5439 122.231 19.1882C121.782 18.8326 121.23 18.6547 120.575 18.6547C119.926 18.6547 119.377 18.8263 118.928 19.1695C118.485 19.5127 118.145 19.9994 117.907 20.6295C117.67 21.2597 117.552 22.0022 117.552 22.857ZM130.33 30.0449V15.6692H134.317V30.0449H130.33ZM132.332 13.816C131.74 13.816 131.231 13.6195 130.807 13.2264C130.389 12.8271 130.18 12.3497 130.18 11.7944C130.18 11.2454 130.389 10.7743 130.807 10.3812C131.231 9.98186 131.74 9.7822 132.332 9.7822C132.925 9.7822 133.431 9.98186 133.849 10.3812C134.273 10.7743 134.485 11.2454 134.485 11.7944C134.485 12.3497 134.273 12.8271 133.849 13.2264C133.431 13.6195 132.925 13.816 132.332 13.816ZM145.157 15.6692V18.6641H136.5V15.6692H145.157ZM138.465 12.225H142.452V25.6274C142.452 25.9955 142.508 26.2825 142.621 26.4884C142.733 26.6881 142.889 26.8285 143.088 26.9096C143.294 26.9907 143.531 27.0313 143.8 27.0313C143.987 27.0313 144.174 27.0157 144.361 26.9845C144.549 26.947 144.692 26.9189 144.792 26.9002L145.419 29.8671C145.219 29.9295 144.938 30.0012 144.577 30.0824C144.215 30.1697 143.775 30.2227 143.257 30.2415C142.296 30.2789 141.454 30.151 140.73 29.8577C140.012 29.5645 139.454 29.109 139.055 28.4913C138.655 27.8736 138.459 27.0936 138.465 26.1515V12.225ZM157.729 10.8772L161.594 17.41H161.744L165.628 10.8772H170.204L164.355 20.4611L170.336 30.0449H165.675L161.744 23.5028H161.594L157.663 30.0449H153.021L159.02 20.4611L153.133 10.8772H157.729Z" fill="#1B1E3E"/>
<defs>
<linearGradient id="paint0_linear_2_23396" x1="20.5267" y1="0.0107422" x2="20.5267" y2="40.0782" gradientUnits="userSpaceOnUse">
<stop stop-color="#282B4A"/>
<stop offset="1" stop-color="#121429"/>
</linearGradient>
</defs>
</svg>
