<svg width="121" height="24" viewBox="0 0 121 24" fill="none" xmlns="http://www.w3.org/2000/svg">
<path d="M8.22688 23.4975H3.7048V12.104H0.624268V8.39454H3.70468V5.75498C3.70468 2.62709 5.06715 0.383789 9.57699 0.383789C10.5308 0.383789 12.0283 0.578099 12.0283 0.578099V4.02256H10.4555C8.85286 4.02256 8.22712 4.51525 8.22712 5.87736V8.39454H11.9683L11.6352 12.104H8.227L8.22688 23.4975ZM18.6029 8.0981C18.537 8.0981 18.4692 8.10053 18.4022 8.10222C14.209 8.10222 12.2905 11.29 12.2905 15.8152C12.2905 21.5157 14.7791 23.7972 18.4349 23.7972C20.5266 23.7972 21.9008 22.9074 22.7361 21.2469V23.4991H27.0372V8.39612H22.7361V10.7187C22.054 9.22442 20.6414 8.11581 18.6029 8.0981ZM19.6966 11.6669C21.4577 11.6669 22.5148 12.9084 22.5148 15.0203L22.5188 17.1772C22.5188 18.6006 21.6458 20.2658 19.6966 20.2658C16.6999 20.2658 16.78 16.9955 16.78 15.9063C16.78 12.2424 18.3766 11.6669 19.6966 11.6669ZM28.7742 15.9484C28.7742 14.1131 28.6873 8.10792 36.4285 8.10792C39.5359 8.10792 40.8334 9.10652 40.8334 9.10652L39.7905 12.3757C39.7905 12.3757 38.4947 11.6545 36.8061 11.6545C34.6434 11.6545 33.2634 12.9217 33.2634 15.1511L33.2658 16.7498C33.2658 18.892 34.5973 20.3221 36.8106 20.3221C38.3489 20.3221 39.7666 19.5941 39.7666 19.5941L40.8069 22.795C40.8069 22.795 39.6205 23.7999 36.4502 23.7999C29.0794 23.7999 28.7744 18.4121 28.7744 15.9484H28.7742ZM66.0526 8.10222C70.2459 8.10222 72.1946 11.29 72.1946 15.8152C72.1946 21.5157 69.706 23.7972 66.0501 23.7972C63.9585 23.7972 62.4122 22.9075 61.577 21.2469V23.4991L57.33 23.4974V0.843002L61.8392 0.445527V10.5141C62.49 8.75259 64.6288 8.10222 66.0527 8.10222H66.0526ZM64.7884 11.6669C63.0273 11.6669 61.8392 12.9084 61.8392 15.0203L61.835 17.1772C61.8324 18.6006 62.6578 20.2658 64.7884 20.2658C67.7851 20.2658 67.705 16.9955 67.705 15.9063C67.705 12.2424 66.1085 11.6669 64.7884 11.6669ZM48.6573 8.11472C43.9013 8.11472 41.3905 10.7355 41.3905 15.3929V16.2582C41.3905 22.303 44.9165 23.8593 49.1202 23.8593C53.2062 23.8593 55.0556 22.7042 55.0556 22.7042L54.2119 19.6283C54.2119 19.6283 52.0363 20.5638 49.6608 20.5638C47.1982 20.5638 46.1392 19.9294 45.8677 17.5376H55.4162V15.0699C55.4162 10.0178 52.5982 8.1146 48.6572 8.1146L48.6573 8.11472ZM48.7719 11.1948C50.4182 11.1948 51.485 12.2151 51.4264 14.5814H45.876C45.9722 12.0909 47.1226 11.1949 48.7719 11.1949V11.1948ZM81.1858 8.09398C76.3018 8.09398 73.7306 10.8757 73.7306 15.8607C73.7306 22.7004 78.1628 23.8013 81.194 23.8013C85.6315 23.8013 88.5837 21.3868 88.5837 15.9228C88.5837 10.2358 85.2643 8.09398 81.1858 8.09398V8.09398ZM81.1244 11.6793C83.272 11.6793 84.123 13.3037 84.123 15.1528V16.7426C84.123 18.9826 82.9322 20.2783 81.1162 20.2783C79.4179 20.2783 78.2242 19.0663 78.2242 16.7426V15.1528C78.2242 12.6746 79.6446 11.6793 81.1244 11.6793V11.6793ZM97.5669 8.09398C92.6829 8.09398 90.1117 10.8757 90.1117 15.8607C90.1117 22.7004 94.5439 23.8013 97.5751 23.8013C102.012 23.8013 104.965 21.3868 104.965 15.9228C104.965 10.2358 101.645 8.09398 97.5669 8.09398V8.09398ZM97.5055 11.6793C99.6531 11.6793 100.504 13.3037 100.504 15.1528V16.7426C100.504 18.9826 99.3132 20.2783 97.4973 20.2783C95.799 20.2783 94.6053 19.0663 94.6053 16.7426V15.1528C94.6053 12.6746 96.0257 11.6793 97.5055 11.6793V11.6793ZM106.669 23.4975V0.843002L111.191 0.445527V15.63L115.678 8.39454H120.454L115.773 15.8883L120.634 23.4975H115.845L111.191 16.1091V23.4975H106.669Z" fill="#494B5C"/>
</svg>
