<svg width="27" height="23" viewBox="0 0 27 23" fill="none" xmlns="http://www.w3.org/2000/svg">
<path d="M23.5408 2.25439H2.83787C1.40746 2.25439 0.25 3.41186 0.25 4.84226V12.6059C0.25 14.0312 1.41252 15.1937 2.83787 15.1937H23.5408C24.9661 15.1937 26.1287 14.0312 26.1287 12.6059V4.84226C26.1287 3.41186 24.9712 2.25439 23.5408 2.25439ZM13.1893 12.6059C12.4767 12.6059 11.8954 12.0246 11.8954 11.3119C11.8954 10.5993 12.4767 10.018 13.1893 10.018C13.902 10.018 14.4833 10.5993 14.4833 11.3119C14.4833 12.0246 13.902 12.6059 13.1893 12.6059Z" fill="white"/>
<path fill-rule="evenodd" clip-rule="evenodd" d="M9.30762 2.25438C9.30762 1.53976 9.88693 0.960449 10.6016 0.960449H15.7773C16.4919 0.960449 17.0712 1.53976 17.0712 2.25438C17.0712 2.969 16.4919 3.54832 15.7773 3.54832H10.6016C9.88693 3.54832 9.30762 2.969 9.30762 2.25438Z" fill="white"/>
<path opacity="0.3" d="M2.83787 17.7817H23.5408C24.7456 17.7817 26.1287 18.5764 26.1287 19.7812V20.3696C26.1287 21.8 24.9712 22.9574 23.5408 22.9574H2.83787C1.40746 22.9574 0.25 21.8 0.25 20.3696V19.7812C0.25 18.5764 1.63306 17.7817 2.83787 17.7817Z" fill="white"/>
</svg>
