<svg width="25" height="28" viewBox="0 0 25 28" fill="none" xmlns="http://www.w3.org/2000/svg">
<path opacity="0.5" d="M8.40887 10.0218C9.58196 10.0218 10.4618 9.13394 10.4618 7.94381V2.71547C10.4618 1.52534 9.58196 0.634766 8.40887 0.634766C7.23578 0.634766 6.35596 1.52534 6.35596 2.71547V7.94381C6.35596 9.13394 7.23578 10.0218 8.40887 10.0218Z" fill="#1B1E3E"/>
<path opacity="0.5" d="M17.5148 9.02182C18.6613 9.02182 19.5677 8.13394 19.5677 6.94381V2.71547C19.5677 1.52534 18.6613 0.634766 17.5148 0.634766C16.3417 0.634766 15.4619 1.52534 15.4619 2.71547V6.94381C15.4619 8.13394 16.3417 9.02182 17.5148 9.02182Z" fill="#1B1E3E"/>
<path d="M22.2759 3.76245H3.64795C2.18225 3.76245 0.986816 4.95788 0.986816 6.42358V25.0515C0.986816 26.5172 2.18225 27.7126 3.64795 27.7126H22.2759C23.7416 27.7126 24.937 26.5172 24.937 25.0515V6.42358C24.937 4.95788 23.7416 3.76245 22.2759 3.76245ZM19.6147 23.7209H6.30908C5.57623 23.7209 4.97852 23.1232 4.97852 22.3904V10.4153H20.9453V22.3904C20.9453 23.1232 20.3476 23.7209 19.6147 23.7209Z" fill="#1B1E3E"/>
</svg>
