<svg width="26" height="21" viewBox="0 0 26 21" fill="none" xmlns="http://www.w3.org/2000/svg">
<path opacity="0.4" d="M14.0226 9.69625L25.162 2.66633C25.6297 2.3728 25.7441 1.731 25.4008 1.29816C24.9331 0.721039 24.2267 0.3479 23.4257 0.3479H3.04737C2.20159 0.3479 1.45034 0.765814 0.987647 1.40761C0.679187 1.83548 0.813517 2.44742 1.26626 2.72603L12.4504 9.69625C12.933 9.99476 13.54 9.99476 14.0226 9.69625Z" fill="#1B1E3E"/>
<path d="M12.4504 12.5918L1.43036 5.72602C1.02737 5.47229 0.5 5.76583 0.5 6.24344V18.1789C0.5 19.5868 1.63931 20.7262 3.04729 20.7262H23.4256C24.8336 20.7262 25.9729 19.5868 25.9729 18.1789V6.15886C25.9729 5.68125 25.4455 5.39269 25.0375 5.64642L14.0225 12.5918C13.5399 12.8952 12.933 12.8952 12.4504 12.5918Z" fill="#1B1E3E"/>
</svg>
