<svg width="18" height="14" viewBox="0 0 18 14" fill="none" xmlns="http://www.w3.org/2000/svg">
<path d="M0.5 6.05547V12.0055C0.5 12.9451 1.26035 13.7055 2.2 13.7055H15.8C16.7396 13.7055 17.5 12.9451 17.5 12.0055V6.05547C17.5 5.5873 17.1182 5.20547 16.65 5.20547H1.35C0.881836 5.20547 0.5 5.5873 0.5 6.05547ZM17.5 1.80547C17.5 0.86582 16.7396 0.105469 15.8 0.105469H2.2C1.26035 0.105469 0.5 0.86582 0.5 1.80547C0.5 2.27363 0.881836 2.65547 1.35 2.65547H16.65C17.1182 2.65547 17.5 2.27363 17.5 1.80547Z" fill="#1B1E3E"/>
</svg>
