<svg width="16" height="13" viewBox="0 0 16 13" fill="none" xmlns="http://www.w3.org/2000/svg">
<path d="M0.329102 5.6719V11.1436C0.329102 12.0077 1.02833 12.7069 1.89244 12.7069H14.3992C15.2633 12.7069 15.9625 12.0077 15.9625 11.1436V5.6719C15.9625 5.24137 15.6114 4.89022 15.1809 4.89022H1.11077C0.680243 4.89022 0.329102 5.24137 0.329102 5.6719ZM15.9625 1.76354C15.9625 0.899425 15.2633 0.200195 14.3992 0.200195H1.89244C1.02833 0.200195 0.329102 0.899425 0.329102 1.76354C0.329102 2.19407 0.680243 2.54521 1.11077 2.54521H15.1809C15.6114 2.54521 15.9625 2.19407 15.9625 1.76354Z" fill="#408BFC"/>
</svg>
