<svg width="26" height="26" viewBox="0 0 26 26" fill="none" xmlns="http://www.w3.org/2000/svg">
<path d="M10.6909 4.54574C10.7546 4.67532 10.7967 4.81409 10.8155 4.95675L11.1635 10.1317V10.1317L11.3363 12.7327C11.3381 13.0002 11.38 13.2659 11.4608 13.5214C11.6695 14.017 12.1715 14.332 12.7176 14.3101L21.0392 13.7658C21.3995 13.7598 21.7475 13.8946 22.0066 14.1404C22.2224 14.3453 22.3618 14.6133 22.4057 14.9015L22.4204 15.0766C22.0761 19.845 18.5739 23.8222 13.8154 24.8488C9.05694 25.8755 4.17733 23.7067 1.82589 19.52C1.14798 18.3036 0.724563 16.9666 0.580477 15.5876C0.520286 15.1793 0.493782 14.767 0.501224 14.3545C0.493793 9.24225 4.13434 4.82253 9.23042 3.75704C9.84376 3.66154 10.445 3.98623 10.6909 4.54574Z" fill="#1B1E3E"/>
<path opacity="0.4" d="M14.0875 0.102342C19.7873 0.247352 24.5778 4.34605 25.5 9.86668L25.4912 9.90741V9.90741L25.466 9.96666L25.4695 10.1293C25.4564 10.3447 25.3733 10.552 25.2299 10.7194C25.0806 10.8938 24.8766 11.0126 24.6519 11.0587L24.515 11.0775L14.914 11.6996C14.5946 11.7311 14.2766 11.6281 14.0391 11.4163C13.8412 11.2397 13.7147 11.0014 13.679 10.7447L13.0345 1.15765C13.0233 1.12523 13.0233 1.09009 13.0345 1.05767C13.0433 0.793409 13.1597 0.543618 13.3575 0.364106C13.5554 0.184593 13.8183 0.0903179 14.0875 0.102342Z" fill="#1B1E3E"/>
</svg>
