<svg width="99" height="34" viewBox="0 0 99 34" fill="none" xmlns="http://www.w3.org/2000/svg">
<path d="M12.5752 0.948486H13.4471C16.474 1.01499 19.4515 2.24534 21.5901 4.42339C20.8004 5.23809 19.9944 6.01952 19.2212 6.83422C18.0203 5.73688 16.5727 4.88893 14.9934 4.58966C12.6574 4.09087 10.1405 4.53978 8.18288 5.88651C6.04431 7.29975 4.59666 9.69395 4.2841 12.2544C3.93864 14.7816 4.64601 17.4418 6.27462 19.4037C7.83742 21.3158 10.2227 22.5129 12.6903 22.596C14.9934 22.729 17.3952 22.0141 19.0731 20.3847C20.3892 19.2375 20.9979 17.4917 21.1953 15.7958C18.4645 15.7958 15.7337 15.8124 13.0029 15.7958V12.3708H24.5018C25.094 16.0452 24.2386 20.1852 21.4749 22.8121C19.6325 24.6743 17.0826 25.7716 14.4834 25.9878C11.9665 26.2372 9.36732 25.755 7.13005 24.5247C4.44861 23.0782 2.31004 20.6341 1.2572 17.7577C0.270171 15.1141 0.253721 12.1214 1.17495 9.46118C2.01393 7.03373 3.62608 4.88893 5.69885 3.39256C7.68937 1.91281 10.1076 1.09812 12.5752 0.948486Z" fill="#494B5C"/>
<path d="M78.5422 1.81348H82.0626V25.5559C80.8947 25.5559 79.7102 25.5725 78.5422 25.5392C78.5587 17.6417 78.5422 9.7276 78.5422 1.81348V1.81348Z" fill="#494B5C"/>
<path d="M32.3317 10.0435C34.5032 9.62783 36.8556 10.0934 38.6487 11.4068C40.2773 12.5707 41.4124 14.3996 41.7579 16.3947C42.2021 18.7057 41.6427 21.2329 40.1622 23.0618C38.5665 25.1068 35.9509 26.2042 33.401 26.0379C31.065 25.9049 28.7949 24.7244 27.413 22.7958C25.8502 20.6676 25.4718 17.7414 26.3273 15.2475C27.1827 12.5707 29.6009 10.5256 32.3317 10.0435V10.0435ZM32.8252 13.2025C31.9369 13.4352 31.1144 13.9506 30.5222 14.6822C28.9265 16.6108 29.0252 19.7532 30.7854 21.5488C31.7889 22.5797 33.3023 23.0618 34.7006 22.7792C36.0002 22.5464 37.1353 21.6652 37.7604 20.5014C38.8461 18.5229 38.5336 15.7962 36.8721 14.2499C35.8028 13.2523 34.24 12.8367 32.8252 13.2025Z" fill="#494B5C"/>
<path d="M49.768 10.0435C52.252 9.56132 54.9663 10.2596 56.8252 12.022C59.8522 14.7654 60.1812 19.9029 57.5984 23.0619C56.0356 25.0571 53.5022 26.1544 51.0018 26.0381C48.6164 25.9716 46.264 24.7745 44.8492 22.7959C43.2535 20.6179 42.9081 17.6251 43.8129 15.0813C44.7176 12.4876 47.0865 10.509 49.768 10.0435V10.0435ZM50.2615 13.2025C49.3731 13.4353 48.5506 13.9507 47.9584 14.6656C46.3791 16.561 46.4449 19.6535 48.1394 21.4658C49.1428 22.5465 50.7056 23.0786 52.1533 22.7793C53.4364 22.5299 54.588 21.6653 55.2131 20.5015C56.2824 18.5063 55.9698 15.7796 54.2919 14.2333C53.2226 13.2358 51.6598 12.8367 50.2615 13.2025Z" fill="#494B5C"/>
<path d="M64.5589 11.0076C66.4508 9.8105 68.9677 9.47798 71.0076 10.5088C71.6491 10.7915 72.1755 11.2736 72.6855 11.7558C72.702 11.3069 72.6855 10.8413 72.702 10.3758C73.8042 10.3924 74.9063 10.3758 76.025 10.3924V25.0568C76.0085 27.2681 75.4492 29.6124 73.87 31.2252C72.1426 33.0042 69.4941 33.5529 67.1088 33.1871C64.5589 32.8047 62.3381 30.9259 61.3511 28.5484C62.3381 28.0662 63.3745 27.6838 64.3944 27.2349C64.9702 28.5982 66.1382 29.7621 67.6023 30.0281C69.0664 30.2941 70.7608 29.9283 71.7149 28.698C72.7349 27.4344 72.7349 25.7053 72.6855 24.159C71.9288 24.9072 71.0569 25.5723 70.0041 25.8217C67.7174 26.4701 65.2005 25.672 63.4403 24.1091C61.6636 22.5463 60.6108 20.1354 60.7095 17.7413C60.7589 15.0312 62.2723 12.4208 64.5589 11.0076V11.0076ZM67.9642 13.1358C66.9607 13.302 66.023 13.8673 65.3815 14.6488C63.8351 16.5109 63.8351 19.487 65.3979 21.3159C66.2862 22.3966 67.7174 22.9952 69.0993 22.8455C70.3989 22.7125 71.5998 21.8812 72.2414 20.734C73.3271 18.7887 73.1461 16.1451 71.682 14.4492C70.7773 13.4018 69.3296 12.8864 67.9642 13.1358V13.1358Z" fill="#494B5C"/>
<path d="M86.2877 11.8554C88.2618 9.99327 91.3051 9.36147 93.8385 10.3424C96.2403 11.2569 97.7702 13.5679 98.5434 15.9455C94.9736 17.4419 91.4203 18.9216 87.8505 20.418C88.344 21.3657 89.1007 22.2303 90.1207 22.5794C91.5519 23.0948 93.2627 22.9119 94.4636 21.9476C94.9407 21.5818 95.319 21.0997 95.681 20.6341C96.5857 21.2493 97.4905 21.8479 98.3953 22.463C97.1122 24.4083 94.9571 25.7717 92.6376 25.9878C90.0713 26.3037 87.3405 25.3061 85.679 23.2777C82.9482 20.0855 83.2114 14.7318 86.2877 11.8554V11.8554ZM88.0479 14.9313C87.4886 15.746 87.2583 16.7436 87.2747 17.7245C89.6601 16.7269 92.0454 15.7294 94.4307 14.7152C94.0359 13.7841 93.0818 13.2188 92.1112 13.0691C90.5484 12.7865 88.9198 13.6344 88.0479 14.9313V14.9313Z" fill="#494B5C"/>
</svg>
