<svg width="25" height="25" viewBox="0 0 25 25" fill="none" xmlns="http://www.w3.org/2000/svg">
<path d="M16.1293 14.9664L24.0376 7.03258C24.5324 6.53512 24.8121 5.85566 24.8121 5.14653V2.81964C24.8121 1.35961 23.6537 0.657227 22.2248 0.657227H3.08729C1.65841 0.657227 0.5 1.35961 0.5 2.81964V5.18833C0.5 5.8597 0.749362 6.50681 1.19927 6.99753L8.46506 14.9246C8.60227 15.0742 8.79358 15.1592 8.99545 15.1605L15.6161 15.1794C15.8074 15.1807 15.9921 15.1052 16.1293 14.9664" fill="#1B1E3E"/>
<path opacity="0.4" d="M8.68018 15.0906V24.0112C8.68018 24.3361 8.84378 24.6422 9.11161 24.8174C9.26466 24.9185 9.44145 24.9697 9.61825 24.9697C9.75151 24.9697 9.88476 24.9414 10.0088 24.8848L15.3654 22.3881C15.7006 22.233 15.9156 21.8919 15.9156 21.5158V15.0906H8.68018Z" fill="#1B1E3E"/>
</svg>
