<svg width="112" height="26" viewBox="0 0 112 26" fill="none" xmlns="http://www.w3.org/2000/svg">
<path d="M19.1447 25.428L11.9034 25.2941C9.55879 25.2475 7.2084 25.3406 4.90985 24.8574C1.41306 24.1354 1.16535 20.5955 0.906115 17.6261C0.548947 13.4515 0.687206 9.20126 1.36122 5.06162C1.74143 2.73853 3.23923 1.35282 5.55506 1.20144C13.3724 0.654148 21.2416 0.718193 29.0417 0.974374C29.8655 0.997663 30.6951 1.12575 31.5073 1.27131C35.5168 1.98163 35.6148 5.99318 35.874 9.37011C36.1332 12.782 36.0238 16.2113 35.5283 19.5999C35.1309 22.4062 34.3704 24.7584 31.1617 24.9855C27.1407 25.2824 23.2118 25.5211 19.1793 25.4454C19.1793 25.428 19.1562 25.428 19.1447 25.428V25.428ZM14.8875 18.3248C17.9177 16.5665 20.8902 14.8372 23.9031 13.0905C20.8672 11.3322 17.9004 9.603 14.8875 7.85631V18.3248Z" fill="#494B5C"/>
<path d="M93.9558 22.2376C93.8176 22.8082 93.6966 23.2565 93.5756 23.734H90.7413V1.63818H94.048V9.78946C94.2208 9.56822 94.3072 9.47506 94.3821 9.37608C94.9467 8.59006 95.6783 8.0777 96.6231 7.87974C98.1266 7.5828 99.4113 8.25237 99.8664 9.71377C100.16 10.6221 100.35 11.5944 100.373 12.5434C100.419 14.983 100.385 17.4167 100.298 19.8563C100.264 20.6016 100.039 21.3643 99.7569 22.063C98.8294 24.3686 95.7993 24.718 94.2957 22.7209C94.2036 22.5986 94.1171 22.4647 93.9558 22.2376V22.2376ZM94.1171 16.1591V20.1998C94.1171 20.8577 94.4628 21.2595 95.1138 21.4109C95.7532 21.5622 96.2717 21.3119 96.5309 20.7122C96.6404 20.4618 96.7498 20.1998 96.7556 19.9378C96.8189 17.4691 96.8766 15.0005 96.8938 12.526C96.8938 12.066 96.7844 11.5886 96.6461 11.1402C96.3869 10.3309 95.6726 10.0922 94.9697 10.5638C94.4397 10.9248 94.1171 11.4372 94.1171 12.1184V16.1591ZM85.1304 8.19414H88.5926V23.7456H85.8908C85.7928 23.1576 85.6949 22.552 85.5797 21.8417C85.3953 22.1154 85.2859 22.29 85.1707 22.4647C84.272 23.7747 82.9989 24.2231 81.4953 23.9843C80.2107 23.7747 79.4387 22.7733 79.2659 21.1314C79.2141 20.6423 79.191 20.1474 79.191 19.6583C79.1795 16.0194 79.191 12.3688 79.191 8.7298V8.1825H82.6936V8.81713C82.6936 12.3338 82.682 15.8447 82.7051 19.3614C82.7051 19.8621 82.7569 20.3803 82.8433 20.881C82.9413 21.3934 83.3099 21.5797 83.8054 21.5448C84.6061 21.4807 85.1592 20.881 85.1592 20.0775V8.88118C85.1304 8.65411 85.1304 8.4445 85.1304 8.19414V8.19414ZM61.2923 8.1825H64.7718V8.84042C64.7718 12.3397 64.7603 15.8331 64.7833 19.3206C64.7833 19.8214 64.8294 20.3396 64.9331 20.8286C65.0656 21.405 65.3997 21.5914 65.9701 21.5157C66.7593 21.405 67.2374 20.8519 67.2432 20.0426V8.90447V8.20579H70.7054V23.7456H68.0151C67.9172 23.1692 67.8193 22.5753 67.6925 21.8242C67.5197 22.0863 67.4218 22.2376 67.3238 22.3948C66.4252 23.7282 65.1635 24.2172 63.6254 23.9785C62.3926 23.7922 61.638 22.8723 61.4075 21.3643C61.3442 20.8927 61.2981 20.4269 61.2981 19.9553C61.2866 16.1766 61.2865 12.3804 61.2865 8.60171L61.2923 8.1825ZM59.5065 16.4852C59.495 17.0092 59.4604 17.5332 59.4316 18.0572C59.2991 19.6292 59.2357 21.8592 57.9799 23.0062C57.1791 23.7282 56.1652 23.9902 55.1168 24.0251C54.6502 24.0367 54.1778 24.0367 53.7111 23.9727C51.5048 23.635 50.4794 22.651 50.1107 20.1998C49.6901 17.3702 49.6556 14.4939 50.1568 11.6643C50.6752 8.73562 52.4611 7.69924 55.2378 7.89138C57.8301 8.0777 58.988 9.79529 59.2933 12.2407C59.4604 13.6439 59.541 15.0645 59.5065 16.4852V16.4852ZM55.9809 15.9495C55.9809 14.9539 56.0039 13.9524 55.9694 12.9568C55.9463 12.3804 55.8714 11.7982 55.7505 11.2276C55.6122 10.5697 55.1974 10.2553 54.679 10.2669C54.172 10.2785 53.8148 10.5929 53.6305 11.2043C53.5671 11.4314 53.498 11.6643 53.498 11.8913C53.498 13.4517 53.4865 15.0179 53.475 16.5783C53.4634 18.0339 53.2791 19.5594 53.7342 20.9509C53.8724 21.3759 54.2296 21.6088 54.6962 21.6088C55.1513 21.6088 55.4509 21.3817 55.618 20.9742C55.7505 20.6598 55.8657 20.3163 55.8657 19.9786C55.906 18.6394 55.9809 17.2945 55.9809 15.9495ZM45.0297 13.0209C45.335 11.5129 45.623 10.0398 45.9399 8.56095C46.3374 6.68033 46.7809 4.79972 47.1727 2.91328C47.2706 2.45331 47.455 2.34269 47.887 2.35433C48.8145 2.38927 49.7593 2.36598 50.7501 2.36598C50.4275 3.56538 50.1107 4.70656 49.7996 5.83027C48.8145 9.35861 47.8294 12.8986 46.8558 16.4386C46.7809 16.7122 46.7464 17.0092 46.7464 17.3003C46.7349 19.2333 46.7464 21.1605 46.7464 23.0935V23.7223H43.3648C43.3533 23.5477 43.3303 23.373 43.3303 23.1983C43.3303 22.1037 43.2438 21.0033 43.3418 19.9203C43.5895 17.3178 42.7715 14.9248 42.109 12.5027C41.2333 9.30039 40.3462 6.08645 39.4705 2.88417C39.4245 2.73278 39.4072 2.56976 39.3611 2.38344H42.8118C43.5376 5.91761 44.2693 9.45177 45.0297 13.0209ZM111.192 17.079H105.362C105.426 18.261 105.449 19.3847 105.57 20.4968C105.656 21.2711 106.076 21.603 106.739 21.6088C107.43 21.6205 107.834 21.2711 107.995 20.5026C108.047 20.2522 108.081 20.0019 108.104 19.7457C108.127 19.5186 108.139 19.2741 108.156 18.948C109.141 19.0004 110.103 19.0586 111.054 19.0994C111.607 20.7588 110.61 22.8897 108.934 23.5477C107.615 24.0717 106.261 24.0717 104.913 23.6699C103.916 23.373 103.173 22.7325 102.839 21.7486C102.528 20.8286 102.234 19.8679 102.171 18.9073C101.998 16.5376 101.934 14.1446 102.292 11.7691C102.355 11.3731 102.464 10.9947 102.585 10.6104C103.069 9.02674 104.124 8.05441 105.754 7.89138C106.641 7.80405 107.557 7.83898 108.433 7.99036C109.85 8.24072 110.604 9.27128 110.933 10.6221C111.083 11.2567 111.192 11.9088 111.215 12.5551C111.221 14.0398 111.192 15.5128 111.192 17.079ZM107.88 15.0354C107.88 13.8651 107.891 12.7647 107.868 11.6584C107.868 11.3964 107.77 11.1228 107.672 10.8724C107.476 10.3833 107.067 10.2494 106.578 10.2494C106.088 10.2494 105.777 10.4998 105.656 10.9481C105.287 12.2931 105.408 13.6671 105.42 15.047C106.301 15.0354 107.102 15.0354 107.88 15.0354V15.0354Z" fill="#494B5C"/>
<path d="M73.3783 5.21921H69.9507V2.41284H80.1818V5.20175H76.7772V23.7226H73.3841L73.3783 5.21921Z" fill="#494B5C"/>
</svg>
