<svg width="125" height="31" viewBox="0 0 125 31" fill="none" xmlns="http://www.w3.org/2000/svg">
<path d="M13.6082 0.163195C12.0048 0.344804 9.59974 1.09918 8.23133 1.85355C4.55461 3.85125 2.0666 6.96654 0.822597 11.1156C0.573796 11.9259 0.283528 14.1331 0.29735 15.1669C0.29735 16.0749 0.573796 18.2961 0.739663 18.827C0.822597 19.0784 1.00229 19.6792 1.15433 20.1402C1.40313 20.9225 2.60567 23.3812 2.813 23.5488C2.85447 23.5907 3.07563 23.8701 3.28296 24.1914C3.79438 24.9598 5.13514 26.3288 6.14417 27.1111C6.91822 27.7119 9.10213 28.9831 9.37858 28.9971C9.44769 28.9971 9.46151 28.4662 9.42005 27.7677C9.32329 26.2171 9.61356 24.1076 10.2356 21.9562C10.3461 21.593 10.4291 21.1181 10.4291 20.9085C10.4291 20.699 10.4844 20.4754 10.5535 20.4056C10.6226 20.3218 10.747 19.9166 10.8161 19.4975C10.899 19.0784 11.0373 18.4358 11.134 18.0726C11.2722 17.5278 11.2584 17.3182 11.0649 16.7315C10.7885 15.8374 10.7746 14.3846 11.0511 13.6861C11.7007 12.0236 12.4195 11.395 13.6358 11.395C15.101 11.395 15.8059 12.5126 15.5295 14.3846C15.4051 15.2367 15.0595 16.5778 14.8384 16.9969C14.7831 17.1227 14.6863 17.4719 14.6449 17.7653C14.5896 18.0726 14.479 18.5057 14.4099 18.7432C14.2164 19.288 14.5896 20.3497 15.0872 20.7548C15.5571 21.132 16.5385 21.2438 17.437 21.0342C18.0728 20.8945 18.3354 20.7269 18.9989 20.0843C19.7867 19.302 20.3811 18.3939 20.3811 17.9609C20.3811 17.8351 20.4502 17.6675 20.5332 17.5837C20.9202 17.1925 21.1275 14.1471 20.8372 12.8618C20.5193 11.4509 19.5379 10.0679 18.2663 9.2576C16.9946 8.43338 14.3684 8.19589 12.7512 8.75469C11.6178 9.14584 10.6088 9.80243 9.95912 10.5708C9.37858 11.2553 8.7704 12.3729 8.7704 12.7641C8.7704 12.9037 8.70129 13.0854 8.61836 13.1692C8.53542 13.253 8.43867 13.7839 8.3972 14.3566C8.32809 15.2088 8.38338 15.5999 8.63218 16.4381C8.79805 17.0109 9.10213 17.6815 9.28182 17.9329C9.65503 18.4358 9.65503 18.6314 9.30947 19.9725C9.21271 20.3357 9.04685 20.671 8.95009 20.7129C8.07929 21.0482 6.31004 18.9387 5.71568 16.8433C5.49452 16.047 5.4807 13.2111 5.70186 12.3729C5.79861 12.0236 5.96448 11.5487 6.07506 11.2972C6.18564 11.0597 6.28239 10.8222 6.28239 10.7664C6.28239 10.7105 6.55884 10.2355 6.90439 9.71861C8.70129 6.98051 11.6178 5.52764 15.3083 5.52764C16.1515 5.52764 17.0223 5.58352 17.2573 5.65337C19.1647 6.25407 19.6762 6.44965 20.4226 6.89669C21.8739 7.77679 22.9244 8.97821 23.9749 10.9899C24.044 11.1156 24.1408 11.4509 24.1822 11.7303C24.2375 12.0097 24.3343 12.2751 24.4034 12.317C24.4725 12.3589 24.5278 13.267 24.5278 14.3426C24.5278 16.2845 24.3896 17.0668 23.809 18.6594C23.1594 20.4056 21.4869 22.3334 19.9664 23.0878C19.0956 23.5069 17.4646 23.9679 16.815 23.9679C15.9442 23.9679 14.2302 23.2415 13.7602 22.6547C13.5391 22.3893 13.3317 22.4871 13.3317 22.8643C13.3317 23.004 13.2765 23.2415 13.1935 23.3812C13.1244 23.5069 13 23.8981 12.9309 24.2473C12.5301 26.0913 11.9633 27.5861 11.0925 28.9831C10.8299 29.4162 11.0511 29.6676 11.7698 29.7654C12.1292 29.8213 12.613 29.9191 12.8341 29.9889C13.387 30.1706 16.3865 30.1426 17.3955 29.961C18.3078 29.7934 19.7867 29.3743 20.4502 29.0949C24.6245 27.3626 27.7898 23.8422 29.1582 19.3578C29.8908 16.969 29.9323 14.189 29.2688 11.395C29.0477 10.487 28.9786 10.2774 28.3842 8.88042C27.5272 6.84081 25.5921 4.45196 23.6293 2.98512C21.943 1.72782 20.2843 1.00139 17.6996 0.372743C16.9808 0.205104 14.4237 0.0654054 13.6082 0.163195ZM50.4722 5.20633C49.9331 5.29015 49.0761 6.18422 48.855 6.88272C48.62 7.65106 48.855 8.47529 49.5184 9.1179C50.9836 10.5568 53.5269 9.20172 53.209 7.13418C53.0155 5.82101 51.8268 4.98281 50.4722 5.20633ZM35.4059 6.03056C35.2815 6.17025 35.2815 23.018 35.4197 23.2135C35.4888 23.3253 36.0832 23.3672 37.2443 23.3532L38.9721 23.3393L39.0412 20.5034C39.0965 18.1983 39.1517 17.6395 39.3176 17.5418C39.4282 17.4719 40.3681 17.4021 41.4048 17.4021C43.6716 17.4021 44.6254 17.2344 45.662 16.6756C47.0166 15.9352 47.8045 14.8735 48.233 13.1831C48.4956 12.1214 48.4956 11.3531 48.2192 10.2634C47.9704 9.28554 47.8598 9.04805 47.2654 8.25177C46.5328 7.25991 45.7864 6.71508 44.5701 6.28201C43.8928 6.0585 43.3261 6.01659 39.6632 5.97468C37.3825 5.94674 35.4612 5.97468 35.4059 6.03056ZM42.9943 9.50906C43.9204 9.80243 44.3766 10.2215 44.5839 10.9759C44.8465 11.9678 44.653 12.8898 44.0725 13.4486C43.4366 14.0493 42.8699 14.189 41.0178 14.189C39.8014 14.189 39.4282 14.1471 39.2623 13.9655C39.0826 13.7978 39.0412 13.3927 39.0412 11.8001C39.0412 9.28554 39.0273 9.29951 40.9486 9.29951C41.778 9.29951 42.5797 9.38333 42.9943 9.50906ZM67.2386 8.68484C67.2386 9.64876 67.1695 10.5568 67.1004 10.7105C67.0036 10.8921 66.8101 10.9759 66.4784 10.9759C66.2296 10.9759 65.9946 11.0318 65.9669 11.1156C65.9531 11.1855 65.9531 11.6744 65.9946 12.1913C66.0637 13.1133 66.0775 13.1273 66.4922 13.2251C66.7272 13.267 66.9898 13.3508 67.0727 13.4067C67.1971 13.4765 67.2386 14.5801 67.2386 17.3741C67.2386 21.132 67.2524 21.2717 67.5565 21.8305C68.1923 23.018 69.1875 23.4371 71.2056 23.3812L72.5602 23.3393L72.6016 21.9842L72.6431 20.6151H72.2975C71.7723 20.6151 70.9982 20.196 70.9153 19.8608C70.8738 19.6931 70.8324 18.2123 70.8324 16.5499C70.8324 14.2588 70.8739 13.4905 71.0121 13.3787C71.1088 13.2949 71.4959 13.2111 71.8691 13.1831L72.5602 13.1412V11.0458L71.7999 11.0038C71.3853 10.9759 70.9983 10.8781 70.943 10.7943C70.8877 10.6965 70.8324 9.78846 70.8324 8.76866V6.92463H67.2386V8.68484ZM118.616 7.00845C118.561 7.06433 118.519 7.94443 118.519 8.96424C118.519 10.948 118.505 10.9759 117.745 10.9759C117.4 10.9759 117.4 10.9899 117.441 12.0516C117.483 13.1133 117.496 13.1412 117.856 13.1831C118.049 13.2111 118.284 13.3089 118.353 13.3927C118.436 13.4905 118.519 15.1808 118.561 17.3322C118.602 19.3998 118.671 21.2857 118.727 21.5092C118.892 22.1239 119.749 22.9062 120.565 23.1716C121.477 23.479 123.799 23.5069 124.034 23.2135C124.145 23.0878 124.186 22.5849 124.159 21.8585L124.117 20.685L123.633 20.6012C123.108 20.5173 122.514 20.238 122.362 20.0005C122.307 19.9166 122.251 18.3939 122.251 16.6197C122.251 12.9736 122.168 13.2111 123.371 13.2111C124.159 13.2111 124.228 13.0714 124.159 11.8001L124.117 11.0458L123.219 10.9759L122.32 10.9061L122.251 8.95027L122.182 6.99448L120.441 6.95257C119.487 6.9386 118.671 6.96654 118.616 7.00845ZM60.3966 10.6406C59.7193 10.8222 58.9314 11.2832 58.4062 11.8281C57.7703 12.4986 57.6045 12.4567 57.5354 11.6045L57.4939 11.0458H54.0383V23.3393L55.7799 23.3672C57.4939 23.4091 57.5354 23.3952 57.6183 23.0878C57.6598 22.9202 57.7012 21.146 57.7012 19.1343C57.7012 15.1529 57.7151 15.0411 58.5306 14.2588C58.8899 13.9096 59.0835 13.8397 59.8575 13.7978L60.756 13.7419L61.295 14.3147C61.9308 14.9853 61.8617 14.3427 61.917 20.1262C61.9308 21.6629 61.9447 23.018 61.9585 23.1577C61.9861 23.3532 62.2073 23.3812 63.7554 23.3532L65.5108 23.3393V13.5324L65.11 12.7361C64.4189 11.3531 63.3545 10.6965 61.7235 10.6127C61.143 10.5987 60.5486 10.5987 60.3966 10.6406ZM77.6744 10.6406C76.1816 11.0458 75.4628 11.4509 74.5368 12.3729C73.2928 13.6442 72.726 15.125 72.726 17.1227C72.7399 20.6291 74.91 23.2275 78.1167 23.5348C80.8535 23.8003 82.9683 22.99 84.3229 21.16C84.5164 20.8945 84.9311 20.0424 84.9311 19.8887C84.9311 19.8328 84.1294 19.7769 83.1619 19.7769H81.3926L80.9779 20.21C80.4942 20.7129 79.8169 21.0342 79.1949 21.0342C78.5729 21.0342 77.6191 20.5872 77.1768 20.1122C76.8451 19.735 76.3613 18.6454 76.3613 18.2682C76.3613 18.1425 77.3703 18.1006 80.6185 18.1006C82.9545 18.1006 84.9311 18.0447 85.0279 17.9888C85.2352 17.8491 85.0417 15.6279 84.7376 14.8176C84.1156 13.1273 82.9407 11.7023 81.752 11.1994C81.4064 11.0597 81.0056 10.8781 80.8674 10.8083C80.5771 10.6546 78.1167 10.5289 77.6744 10.6406ZM80.3698 13.7C80.9088 14.0772 81.3788 14.9713 81.3097 15.4742C81.2682 15.7955 81.2406 15.7955 78.9046 15.8374C76.2093 15.8793 76.1954 15.8654 76.6239 14.8595C76.928 14.161 77.5362 13.5324 78.1029 13.3508C78.7525 13.1412 79.803 13.3089 80.3698 13.7ZM98.1314 10.6406C96.528 11.0737 95.4084 11.7862 94.5376 12.8898C94.192 13.3368 93.9156 13.7559 93.9156 13.8397C93.9156 13.9096 93.8188 14.161 93.6944 14.3985C93.57 14.622 93.3903 15.3205 93.2936 15.9492C92.8098 18.9387 94.1367 21.7327 96.6247 22.99L97.5785 23.479H99.5827C101.656 23.479 101.836 23.4371 103.107 22.7525C104.033 22.2496 105.554 20.2938 105.319 19.9027C105.264 19.8328 104.476 19.7769 103.55 19.7769H101.85L101.504 20.1821C100.122 21.7607 97.537 20.9504 96.9841 18.7571C96.9012 18.4638 96.9012 18.2123 96.9703 18.1564C97.0394 18.1145 99.016 18.0866 101.38 18.1006C104.752 18.1006 105.665 18.0726 105.678 17.9329C105.803 16.1867 104.973 13.6022 103.937 12.4847C103.356 11.856 102.347 11.1575 101.85 11.0318C101.628 10.9759 101.38 10.8781 101.283 10.8083C101.089 10.6546 98.5599 10.5289 98.1314 10.6406ZM100.288 13.3648C100.91 13.5883 101.628 14.3706 101.739 14.9713C101.905 15.8793 101.919 15.8793 99.3477 15.8374C97.0394 15.7955 97.0256 15.7955 96.9841 15.4742C96.9288 15.0831 97.4126 14.1191 97.8273 13.7559C98.4216 13.253 99.4583 13.0854 100.288 13.3648ZM110.157 10.6406C107.323 11.3251 106.3 12.345 106.287 14.4684C106.287 16.7594 107.42 17.7234 110.779 18.3241C113.087 18.7292 113.751 19.0924 113.723 19.9725C113.709 20.6012 113.281 21.0063 112.424 21.1879C111.345 21.4254 110.502 21.16 109.825 20.3916L109.286 19.7769H107.613C106.259 19.7769 105.941 19.8189 105.941 19.9725C105.941 20.3776 106.494 21.4394 106.95 21.9702C107.378 22.4312 107.71 22.6547 109.009 23.2834C109.134 23.3532 109.811 23.465 110.488 23.5488C111.746 23.7025 113.93 23.5628 114.483 23.2834C114.608 23.2275 114.967 23.0459 115.271 22.9062C116.059 22.529 116.805 21.6769 117.082 20.8666C117.386 19.9446 117.303 18.6594 116.874 17.7653C116.363 16.7175 115.008 15.9632 112.99 15.5999C110.392 15.1389 110.35 15.125 109.936 14.7198C109.438 14.203 109.438 14.0213 109.936 13.4625C110.336 13.0155 110.364 13.0015 111.47 13.0015C112.576 13.0015 112.603 13.0155 113.004 13.4625C113.225 13.714 113.405 14.0074 113.405 14.1191C113.405 14.2868 113.695 14.3287 115.133 14.3287C117.04 14.3287 116.985 14.3706 116.653 13.3787C116.045 11.6185 114.483 10.7244 111.885 10.6267C111.083 10.5987 110.309 10.5987 110.157 10.6406ZM91.7731 10.934C91.1649 11.1435 90.3218 11.842 90.0592 12.345C89.7965 12.8479 89.5616 12.6383 89.4925 11.8001L89.4233 11.0458H85.9678L85.9263 16.9131C85.9125 20.1402 85.9263 22.9202 85.9678 23.1018C86.0369 23.4091 86.0783 23.4091 87.737 23.3812C88.6908 23.3672 89.4648 23.2834 89.5201 23.1996C89.5754 23.1297 89.6307 21.6489 89.6307 19.9166C89.6307 17.1785 89.6583 16.6896 89.8933 16.0749C90.3771 14.8037 91.4137 14.0493 92.713 14.0493C93.0724 14.0493 93.2245 13.9794 93.2659 13.7978C93.3627 13.3927 93.3765 11.5068 93.2936 11.0877C93.2106 10.7524 93.1415 10.6965 92.7683 10.7105C92.5195 10.7244 92.0772 10.8222 91.7731 10.934ZM49.2005 11.1435C49.1591 11.2413 49.1452 13.9934 49.1591 17.2624L49.2005 23.1996L50.8454 23.2694C51.8406 23.3113 52.5593 23.2834 52.6699 23.1996C52.822 23.0878 52.8634 21.9004 52.8634 17.1506C52.8773 13.9096 52.8358 11.1855 52.7943 11.1156C52.6561 10.9061 49.2696 10.934 49.2005 11.1435Z" fill="#494B5C"/>
</svg>
