<svg width="14" height="17" viewBox="0 0 14 17" fill="none" xmlns="http://www.w3.org/2000/svg">
<path fill-rule="evenodd" clip-rule="evenodd" d="M0.840052 13.9609C1.14328 13.9609 1.38909 14.2067 1.38909 14.51C1.38909 14.7688 1.49192 15.0171 1.67497 15.2002C1.85802 15.3832 2.10629 15.486 2.36515 15.486H13.0409C13.3441 15.486 13.5899 15.7319 13.5899 16.0351C13.5899 16.3383 13.3441 16.5841 13.0409 16.5841H2.36515C1.81506 16.5841 1.28749 16.3656 0.898517 15.9766C0.50954 15.5876 0.291016 15.0601 0.291016 14.51C0.291016 14.2067 0.536828 13.9609 0.840052 13.9609Z" fill="#1B1E3E" stroke="#1B1E3E" stroke-width="0.162719" stroke-linecap="round" stroke-linejoin="round"/>
<path d="M2.87356 0.784668C2.33425 0.784668 1.81703 0.998908 1.43568 1.38026C1.05433 1.76161 0.840088 2.27883 0.840088 2.81814V14.5106C0.840088 14.1061 1.00077 13.7182 1.28678 13.4322C1.57279 13.1462 1.96071 12.9855 2.36519 12.9855H12.5325C12.6674 12.9855 12.7967 12.9319 12.892 12.8366C12.9873 12.7412 13.0409 12.6119 13.0409 12.4771V1.29304C13.0409 1.15821 12.9873 1.0289 12.892 0.933565C12.7967 0.838228 12.6674 0.784668 12.5325 0.784668H2.87356Z" fill="#1B1E3E"/>
<path fill-rule="evenodd" clip-rule="evenodd" d="M1.04741 0.99175C1.53173 0.507436 2.1886 0.235352 2.87352 0.235352H12.5325C12.8129 0.235352 13.0819 0.346756 13.2802 0.545058C13.4785 0.74336 13.5899 1.01232 13.5899 1.29276V12.4768C13.5899 12.7573 13.4785 13.0262 13.2802 13.2245C13.0819 13.4228 12.8129 13.5342 12.5325 13.5342H2.36515C2.10629 13.5342 1.85802 13.6371 1.67497 13.8201C1.49192 14.0032 1.38909 14.2514 1.38909 14.5103C1.38909 14.8135 1.14328 15.0593 0.840052 15.0593C0.536828 15.0593 0.291016 14.8135 0.291016 14.5103V2.81786C0.291016 2.13293 0.5631 1.47606 1.04741 0.99175ZM1.38909 12.6802C1.68681 12.5214 2.02159 12.4362 2.36515 12.4362H12.4918V1.33342H2.87352C2.47983 1.33342 2.10225 1.48982 1.82387 1.7682C1.54548 2.04659 1.38909 2.42416 1.38909 2.81786V12.6802Z" fill="#1B1E3E"/>
<path fill-rule="evenodd" clip-rule="evenodd" d="M12.0239 12.4365C12.3271 12.4365 12.5729 12.6823 12.5729 12.9856V16.0358C12.5729 16.339 12.3271 16.5848 12.0239 16.5848C11.7207 16.5848 11.4749 16.339 11.4749 16.0358V12.9856C11.4749 12.6823 11.7207 12.4365 12.0239 12.4365Z" fill="#1B1E3E" stroke="#1B1E3E" stroke-width="0.162719" stroke-linecap="round" stroke-linejoin="round"/>
</svg>
