<svg width="12" height="14" viewBox="0 0 12 14" fill="none" xmlns="http://www.w3.org/2000/svg">
<path d="M5.9942 11.2333L1.7352 13.3607C1.41357 13.5353 1.01237 13.4187 0.832478 13.0984C0.779941 12.9977 0.752159 12.8858 0.751465 12.772V8.01025C0.751465 8.48235 1.01765 8.77377 1.71784 9.10015L5.9942 11.2333Z" fill="#408BFC"/>
<path d="M8.01375 0.328613H3.96307C2.19235 0.328613 0.751465 1.02801 0.751465 2.81731V8.01035C0.751465 8.48245 1.01765 8.77386 1.71784 9.10025L5.9942 11.2334L10.2474 13.3608C10.404 13.4514 10.5905 13.4741 10.764 13.4235C10.9375 13.373 11.0831 13.2535 11.1675 13.0927C11.22 12.994 11.2478 12.884 11.2485 12.7721V2.81731C11.2311 1.02801 9.79026 0.328613 8.01375 0.328613Z" fill="#408BFC"/>
</svg>
