<svg width="23" height="23" viewBox="0 0 23 23" fill="none" xmlns="http://www.w3.org/2000/svg">
<path d="M11.7708 22.0479C17.8459 22.0479 22.7708 17.123 22.7708 11.0479C22.7708 4.97272 17.8459 0.0478516 11.7708 0.0478516C5.69562 0.0478516 0.770752 4.97272 0.770752 11.0479C0.770752 17.123 5.69562 22.0479 11.7708 22.0479Z" fill="#22D661"/>
<path d="M11.7709 3.76855C7.8951 3.76855 4.75342 6.91024 4.75342 10.786C4.75342 14.6617 7.8951 17.8034 11.7709 17.8034C15.6466 17.8034 18.7883 14.6617 18.7883 10.786C18.7883 6.91072 15.6466 3.76903 11.7709 3.76855ZM14.9892 13.8894C14.8632 14.0962 14.5936 14.1609 14.3877 14.0349C12.74 13.0279 10.6657 12.8005 8.22311 13.3583C7.98752 13.4124 7.75289 13.265 7.69926 13.0294C7.64515 12.7938 7.79215 12.5591 8.02822 12.5055C10.7011 11.895 12.9943 12.1579 14.8441 13.2879C15.05 13.4148 15.1156 13.6835 14.9892 13.8894V13.8894ZM15.8477 11.9793C15.6892 12.2369 15.3521 12.3173 15.095 12.1593C13.2093 11 10.3334 10.6644 8.10244 11.3415C7.81322 11.4291 7.50772 11.2658 7.41961 10.9771C7.33246 10.6878 7.49575 10.3828 7.78449 10.2947C10.3329 9.52137 13.5014 9.89583 15.6672 11.227C15.9248 11.3855 16.0062 11.7221 15.8477 11.9793ZM15.9215 9.9892C13.6594 8.64605 9.92827 8.52251 7.76869 9.17756C7.42201 9.28291 7.05521 9.08706 6.95035 8.74038C6.84548 8.3937 7.04085 8.0269 7.38801 7.92156C9.86698 7.1693 13.9874 7.31439 16.5914 8.86009C16.9031 9.0454 17.0056 9.44811 16.8207 9.75936C16.6364 10.0716 16.2327 10.1745 15.9215 9.9892Z" fill="white"/>
</svg>
