<svg width="23" height="23" viewBox="0 0 23 23" fill="none" xmlns="http://www.w3.org/2000/svg">
<path d="M11.9221 22.5229C17.9973 22.5229 22.9221 17.5981 22.9221 11.5229C22.9221 5.44782 17.9973 0.522949 11.9221 0.522949C5.84699 0.522949 0.922119 5.44782 0.922119 11.5229C0.922119 17.5981 5.84699 22.5229 11.9221 22.5229Z" fill="#007AB9"/>
<path d="M17.2323 12.6706V16.5977H14.9554V12.9338C14.9554 12.0138 14.6267 11.3855 13.8023 11.3855C13.1732 11.3855 12.7995 11.8085 12.6344 12.2181C12.5745 12.3644 12.559 12.5677 12.559 12.773V16.5976H10.282C10.282 16.5976 10.3126 10.392 10.282 9.74966H12.5592V10.7201C12.5546 10.7277 12.5482 10.7352 12.5441 10.7425H12.5592V10.7201C12.8618 10.2545 13.4014 9.58886 14.6112 9.58886C16.1092 9.58886 17.2323 10.5676 17.2323 12.6706ZM7.90002 6.44873C7.12114 6.44873 6.61157 6.96 6.61157 7.63173C6.61157 8.2892 7.10637 8.81525 7.87014 8.81525H7.88491C8.67907 8.81525 9.17285 8.2892 9.17285 7.63173C9.15774 6.96 8.67907 6.44873 7.90002 6.44873ZM6.7469 16.5977H9.02309V9.74966H6.7469V16.5977Z" fill="#F1F2F2"/>
</svg>
