<svg width="23" height="23" viewBox="0 0 23 23" fill="none" xmlns="http://www.w3.org/2000/svg">
<circle cx="11.5459" cy="11.3325" r="11" fill="#55ACEE"/>
<path d="M17.8054 7.45002C17.3449 7.6542 16.8496 7.7923 16.3301 7.85398C16.8605 7.53621 17.2675 7.03342 17.4597 6.43332C16.9634 6.72772 16.4135 6.94128 15.8287 7.0564C15.3602 6.55744 14.6926 6.24561 13.9535 6.24561C12.5353 6.24561 11.3851 7.39581 11.3851 8.81398C11.3851 9.01529 11.4079 9.21124 11.452 9.39933C9.31742 9.29226 7.4248 8.26981 6.15794 6.71546C5.9369 7.09471 5.8101 7.53621 5.8101 8.00683C5.8101 8.89769 6.26386 9.68416 6.95265 10.1446C6.53183 10.1314 6.13553 10.0159 5.78942 9.82302C5.78923 9.83394 5.78923 9.84486 5.78923 9.85559C5.78923 11.1 6.67491 12.138 7.84964 12.3738C7.63434 12.4328 7.40698 12.464 7.17311 12.464C7.00724 12.464 6.84653 12.4481 6.68985 12.4182C7.01662 13.4384 7.96494 14.181 9.0891 14.2019C8.20993 14.8908 7.10262 15.3013 5.89898 15.3013C5.69211 15.3013 5.48716 15.2892 5.28662 15.2653C6.42265 15.9943 7.77302 16.4193 9.22337 16.4193C13.9475 16.4193 16.5311 12.5058 16.5311 9.11145C16.5311 9.00016 16.5286 8.88926 16.5236 8.77932C17.0258 8.4173 17.4612 7.96507 17.8054 7.45002Z" fill="white"/>
</svg>
