<svg width="23" height="23" viewBox="0 0 23 23" fill="none" xmlns="http://www.w3.org/2000/svg">
<circle cx="11.0918" cy="11.7612" r="10.75" fill="white" stroke="#EBEBF0" stroke-width="0.5"/>
<path d="M17.3694 11.9033C17.377 11.4627 17.3314 11.0222 17.2352 10.5942H11.219V12.9719H14.7513C14.6171 13.815 14.1436 14.5645 13.4422 15.0507L13.4295 15.1292L15.3311 16.6029L15.4628 16.6155C16.6706 15.4989 17.3694 13.8556 17.3694 11.9033Z" fill="#4285F4"/>
<path d="M11.2193 18.1676C12.9487 18.1676 14.4022 17.5978 15.4631 16.6154L13.4425 15.048C12.7867 15.4886 12.0093 15.7114 11.2219 15.6887C9.56082 15.6785 8.09221 14.6049 7.57567 13.0249L7.4997 13.0325L5.52215 14.5619L5.49683 14.6328C6.58056 16.8028 8.79613 18.1701 11.2193 18.1676Z" fill="#34A853"/>
<path d="M7.57296 13.0275C7.43369 12.6198 7.36026 12.1919 7.36026 11.7589C7.3628 11.3284 7.4337 10.9005 7.5679 10.4903L7.56536 10.4067L5.56248 8.85205L5.49665 8.88243C4.5851 10.6929 4.5851 12.8249 5.49665 14.6353L7.57296 13.0275Z" fill="#FBBC05"/>
<path d="M11.219 7.83174C12.1382 7.81655 13.0244 8.15838 13.6954 8.78634L15.5033 7.02148C14.3436 5.93268 12.8066 5.33764 11.2165 5.35537C8.79329 5.35537 6.57772 6.72016 5.49146 8.88762L7.5627 10.4955C8.08431 8.91548 9.55545 7.84187 11.219 7.83174Z" fill="#EB4335"/>
</svg>
