<svg width="23" height="23" viewBox="0 0 23 23" fill="none" xmlns="http://www.w3.org/2000/svg">
<path d="M11.3218 22.9517C17.3969 22.9517 22.3218 18.0268 22.3218 11.9517C22.3218 5.87653 17.3969 0.95166 11.3218 0.95166C5.24664 0.95166 0.321777 5.87653 0.321777 11.9517C0.321777 18.0268 5.24664 22.9517 11.3218 22.9517Z" fill="#FF4500"/>
<path d="M4.37061 14.41C4.37061 14.5816 4.43315 14.7114 4.55822 14.7993C4.68329 14.8872 4.81699 14.9183 4.95931 14.8926C5.09301 14.8669 5.18681 14.8197 5.24074 14.751C5.29464 14.6824 5.32161 14.5687 5.32161 14.41V12.5439C5.32161 12.4109 5.27525 12.2983 5.18252 12.2061C5.0898 12.1138 4.97659 12.0677 4.84288 12.0677C4.71349 12.0677 4.60244 12.1138 4.50971 12.2061C4.41698 12.2983 4.37061 12.4109 4.37061 12.5439V14.41ZM5.85855 15.2079C5.85855 15.3323 5.90276 15.4256 5.99117 15.4879C6.07959 15.5501 6.19281 15.5812 6.33081 15.5812C6.47314 15.5812 6.5885 15.5501 6.67692 15.4879C6.76533 15.4257 6.80954 15.3323 6.80954 15.2079V10.858C6.80954 10.7293 6.76317 10.6188 6.67045 10.5266C6.57772 10.4343 6.46451 10.3882 6.33081 10.3882C6.20142 10.3882 6.09036 10.4343 5.99764 10.5266C5.90491 10.6188 5.85855 10.7293 5.85855 10.858V15.2079V15.2079ZM7.34002 15.4138C7.34002 15.5382 7.38531 15.6316 7.47588 15.6938C7.56645 15.756 7.6829 15.7871 7.82524 15.7871C7.96324 15.7871 8.07645 15.756 8.16486 15.6938C8.25329 15.6316 8.2975 15.5382 8.2975 15.4138V11.4435C8.2975 11.3105 8.25113 11.1969 8.15841 11.1025C8.06568 11.0081 7.95462 10.9609 7.82524 10.9609C7.69153 10.9609 7.57724 11.0081 7.48236 11.1025C7.38748 11.1969 7.34004 11.3105 7.34004 11.4435V15.4138H7.34002ZM8.82797 15.4331C8.82797 15.6691 8.98754 15.7871 9.3067 15.7871C9.62584 15.7871 9.78542 15.6691 9.78542 15.4331V8.99828C9.78542 8.63792 9.67544 8.43416 9.45548 8.38696C9.31315 8.35264 9.17298 8.3934 9.03497 8.50923C8.89696 8.62505 8.82796 8.78806 8.82796 8.99828V15.4331H8.82797ZM10.3418 15.6198V8.61862C10.3418 8.39555 10.4086 8.26256 10.5424 8.21966C10.8313 8.15102 11.1181 8.1167 11.4028 8.1167C12.0626 8.1167 12.6772 8.27114 13.2465 8.58001C13.8158 8.88888 14.2762 9.31037 14.6277 9.84446C14.9792 10.3786 15.183 10.9673 15.2391 11.6108C15.5022 11.4993 15.7825 11.4435 16.0801 11.4435C16.6839 11.4435 17.2003 11.6559 17.6295 12.0806C18.0586 12.5053 18.2732 13.0158 18.2732 13.6121C18.2732 14.2127 18.0586 14.7253 17.6295 15.15C17.2003 15.5747 16.686 15.7871 16.0865 15.7871L10.4582 15.7806C10.4194 15.7678 10.3903 15.7442 10.3709 15.7099C10.3515 15.6756 10.3418 15.6455 10.3418 15.6198V15.6198Z" fill="white"/>
</svg>
