<svg width="23" height="23" viewBox="0 0 23 23" fill="none" xmlns="http://www.w3.org/2000/svg">
<path d="M11.1379 22.9517C17.2131 22.9517 22.1379 18.0268 22.1379 11.9517C22.1379 5.87653 17.2131 0.95166 11.1379 0.95166C5.06281 0.95166 0.137939 5.87653 0.137939 11.9517C0.137939 18.0268 5.06281 22.9517 11.1379 22.9517Z" fill="#FF4500"/>
<path d="M17.1145 12.0451C17.1145 11.3234 16.5283 10.7372 15.8066 10.7372C15.454 10.7372 15.134 10.8774 14.8981 11.1039C14.0036 10.4593 12.7705 10.0413 11.3996 9.99457L11.9952 7.18969L13.9429 7.60307C13.9663 8.09818 14.3726 8.49287 14.8724 8.49287C15.3886 8.49287 15.8066 8.07483 15.8066 7.55869C15.8066 7.04256 15.3886 6.62451 14.8724 6.62451C14.5058 6.62451 14.1905 6.83704 14.0387 7.14532L11.8644 6.6829C11.8036 6.66889 11.7406 6.68056 11.6892 6.71559C11.6378 6.74829 11.6005 6.80201 11.5888 6.86273L10.9232 9.99223C9.53125 10.0319 8.27945 10.4476 7.37329 11.1016C7.13741 10.875 6.81979 10.7372 6.46947 10.7372C5.74782 10.7372 5.16162 11.3234 5.16162 12.0451C5.16162 12.5776 5.47924 13.033 5.93466 13.2385C5.91364 13.3693 5.90429 13.5001 5.90429 13.6332C5.90429 15.6464 8.24675 17.2788 11.138 17.2788C14.0293 17.2788 16.3671 15.6464 16.3671 13.6332C16.3671 13.5001 16.3554 13.3693 16.3368 13.2408C16.7945 13.0377 17.1145 12.5799 17.1145 12.0451ZM8.14399 12.9793C8.14399 12.4631 8.56438 12.0451 9.07818 12.0451C9.59431 12.0451 10.0124 12.4655 10.0124 12.9793C10.0124 13.4954 9.59431 13.9135 9.07818 13.9135C8.56204 13.9135 8.14399 13.4954 8.14399 12.9793ZM13.3544 15.4502C12.7168 16.0878 11.493 16.1368 11.1357 16.1368C10.776 16.1368 9.55461 16.0878 8.91703 15.4502C8.82361 15.3568 8.82361 15.2026 8.91703 15.1069C9.01045 15.0135 9.16459 15.0135 9.26034 15.1069C9.66204 15.5086 10.5215 15.651 11.1357 15.651C11.7499 15.651 12.6094 15.5086 13.0134 15.1069C13.1092 15.0135 13.261 15.0135 13.3567 15.1069C13.4501 15.2026 13.4501 15.3544 13.3544 15.4502ZM13.1909 13.9135C12.6748 13.9135 12.2567 13.4931 12.2567 12.9793C12.2567 12.4631 12.6771 12.0451 13.1909 12.0451C13.707 12.0451 14.1251 12.4655 14.1251 12.9793C14.1251 13.4954 13.7047 13.9135 13.1909 13.9135Z" fill="white"/>
</svg>
