<svg width="23" height="23" viewBox="0 0 23 23" fill="none" xmlns="http://www.w3.org/2000/svg">
<path d="M11.0139 22.5229C17.089 22.5229 22.0139 17.5981 22.0139 11.5229C22.0139 5.44782 17.089 0.522949 11.0139 0.522949C4.93878 0.522949 0.013916 5.44782 0.013916 11.5229C0.013916 17.5981 4.93878 22.5229 11.0139 22.5229Z" fill="#FFDB1E"/>
<path d="M17.3158 14.2729C15.472 13.9693 14.6462 12.0856 14.6121 12.0052L14.6082 11.9981C14.5558 11.9125 14.5228 11.8164 14.5115 11.7166C14.5001 11.6168 14.5108 11.5158 14.5426 11.4206C14.6661 11.1286 15.0764 10.9987 15.3472 10.9125C15.4154 10.8913 15.479 10.8707 15.5292 10.8507C16.0199 10.6578 16.1196 10.4565 16.117 10.3221C16.1042 10.2385 16.0667 10.1607 16.0094 10.0985C15.9522 10.0363 15.8777 9.99257 15.7955 9.97286L15.791 9.97158C15.7182 9.94216 15.6405 9.92709 15.562 9.9272C15.4928 9.9262 15.4241 9.94002 15.3607 9.96772C15.1692 10.0645 14.9605 10.1227 14.7465 10.1388C14.623 10.1417 14.5024 10.1012 14.4056 10.0243L14.4262 9.68345L14.4288 9.64165C14.5527 8.77506 14.5002 7.89237 14.2744 7.04659C14.0081 6.43926 13.5688 5.92384 13.0113 5.56469C12.4538 5.20554 11.8029 5.01857 11.1398 5.02714L10.8812 5.03035C10.2193 5.02222 9.56963 5.20923 9.01331 5.56802C8.45698 5.92682 8.01865 6.44152 7.75302 7.04787C7.52698 7.89272 7.47404 8.77454 7.59738 9.64036C7.60596 9.76856 7.61368 9.89676 7.62054 10.025C7.5139 10.1084 7.38001 10.1492 7.24495 10.1394C7.01768 10.1297 6.79522 10.0709 6.5928 9.96707C6.54323 9.94515 6.48943 9.93439 6.43524 9.93556C6.32351 9.93127 6.21323 9.96201 6.11983 10.0235C6.02643 10.0849 5.95457 10.174 5.9143 10.2784C5.86156 10.5549 6.25644 10.7562 6.49698 10.8507C6.54843 10.8713 6.61146 10.8913 6.67898 10.9125C6.95039 10.9987 7.36071 11.1286 7.48419 11.4206C7.51597 11.5158 7.52656 11.6168 7.51523 11.7166C7.5039 11.8163 7.47092 11.9124 7.41859 11.9981L7.41473 12.0052C7.2371 12.3923 7.00564 12.7524 6.72722 13.0747C6.2214 13.7036 5.50577 14.129 4.71163 14.2729C4.67416 14.2791 4.64032 14.299 4.61659 14.3287C4.59285 14.3584 4.5809 14.3957 4.583 14.4337C4.58445 14.4624 4.59098 14.4908 4.60229 14.5173C4.71613 14.7816 5.28338 14.9996 6.24422 15.1482C6.33426 15.1623 6.37157 15.309 6.4243 15.5482C6.44488 15.6447 6.46675 15.7444 6.49698 15.8473C6.50702 15.8929 6.53363 15.9331 6.57166 15.9602C6.60968 15.9873 6.65641 15.9993 6.70278 15.9939C6.79462 15.9889 6.88585 15.976 6.97547 15.9553C7.21217 15.9036 7.45353 15.8763 7.69578 15.8736C7.87012 15.874 8.04414 15.8886 8.21608 15.9174C8.57882 16.0092 8.91623 16.1816 9.2033 16.4216C9.68784 16.8354 10.2968 17.0753 10.9333 17.1033C10.9546 17.1033 10.9764 17.1027 10.9977 17.1008C11.0234 17.102 11.0587 17.1033 11.0948 17.1033C11.7317 17.0754 12.3411 16.8354 12.8261 16.4216C13.1127 16.1817 13.4497 16.0093 13.812 15.9174C13.9838 15.8887 14.1576 15.8741 14.3317 15.8736C14.5737 15.8749 14.8151 15.9005 15.052 15.9502C15.1419 15.9697 15.2334 15.9811 15.3253 15.9843H15.3408C15.3842 15.9877 15.4273 15.9753 15.4623 15.9492C15.4972 15.9232 15.5214 15.8854 15.5305 15.8428C15.5585 15.7447 15.583 15.6455 15.6038 15.5456C15.6559 15.307 15.6938 15.161 15.7839 15.1469C16.7447 14.999 17.3126 14.7803 17.4245 14.5179C17.4362 14.4915 17.4432 14.4632 17.4451 14.4343C17.4472 14.3964 17.4352 14.359 17.4115 14.3293C17.3878 14.2997 17.3539 14.2798 17.3165 14.2735L17.3158 14.2729Z" fill="white"/>
</svg>
