<svg width="23" height="23" viewBox="0 0 23 23" fill="none" xmlns="http://www.w3.org/2000/svg">
<path d="M11.6838 22.1421C17.759 22.1421 22.6838 17.2172 22.6838 11.1421C22.6838 5.06696 17.759 0.14209 11.6838 0.14209C5.60871 0.14209 0.683838 5.06696 0.683838 11.1421C0.683838 17.2172 5.60871 22.1421 11.6838 22.1421Z" fill="url(#paint0_radial_20_22903)"/>
<path fill-rule="evenodd" clip-rule="evenodd" d="M5.61084 10.9596C5.61084 7.57546 8.2632 5.06885 11.6838 5.06885C15.1044 5.06885 17.7567 7.57697 17.7567 10.9611C17.7567 14.3453 15.1044 16.8519 11.6838 16.8519C11.0689 16.8519 10.4798 16.7699 9.92567 16.6181C9.81787 16.5892 9.70249 16.5968 9.60076 16.6424L8.39528 17.1737C8.32248 17.2059 8.2429 17.2196 8.16354 17.2138C8.08418 17.2079 8.00747 17.1827 7.94015 17.1402C7.87283 17.0978 7.81697 17.0395 7.77746 16.9704C7.73796 16.9013 7.71603 16.8236 7.7136 16.7441L7.6802 15.6631C7.67716 15.5295 7.61643 15.405 7.51774 15.3169C6.33656 14.2602 5.61084 12.7299 5.61084 10.9596ZM9.82065 9.8527L8.03672 12.6827C7.86516 12.9545 8.19917 13.2596 8.45424 13.0653L10.3703 11.6108C10.4333 11.5629 10.5102 11.5369 10.5894 11.5366C10.6685 11.5363 10.7456 11.5619 10.809 11.6093L12.2286 12.6736C12.3293 12.7492 12.4445 12.8031 12.5671 12.8319C12.6897 12.8608 12.8169 12.8639 12.9407 12.841C13.0646 12.8182 13.1823 12.77 13.2866 12.6993C13.3908 12.6287 13.4793 12.5372 13.5464 12.4307L15.3318 9.60219C15.5019 9.33043 15.1679 9.02374 14.9128 9.21808L12.9968 10.6725C12.9338 10.7204 12.8568 10.7465 12.7777 10.7468C12.6985 10.747 12.6214 10.7215 12.558 10.6741L11.1385 9.60978C11.0378 9.53417 10.9225 9.48024 10.7999 9.45142C10.6774 9.4226 10.5501 9.41951 10.4263 9.44233C10.3025 9.46516 10.1847 9.51341 10.0805 9.58404C9.97623 9.65468 9.88776 9.74615 9.82065 9.8527Z" fill="white"/>
<defs>
<radialGradient id="paint0_radial_20_22903" cx="0" cy="0" r="1" gradientUnits="userSpaceOnUse" gradientTransform="translate(4.36884 22.1415) scale(24.2 24.1993)">
<stop stop-color="#0099FF"/>
<stop offset="0.6" stop-color="#A033FF"/>
<stop offset="0.9" stop-color="#FF5280"/>
<stop offset="1" stop-color="#FF7061"/>
</radialGradient>
</defs>
</svg>
