<svg width="23" height="23" viewBox="0 0 23 23" fill="none" xmlns="http://www.w3.org/2000/svg">
<path d="M11.5918 22.1421C17.6669 22.1421 22.5918 17.2172 22.5918 11.1421C22.5918 5.06696 17.6669 0.14209 11.5918 0.14209C5.51666 0.14209 0.591797 5.06696 0.591797 11.1421C0.591797 17.2172 5.51666 22.1421 11.5918 22.1421Z" fill="url(#paint0_linear_20_22893)"/>
<path d="M13.9568 5.29102H9.22687C7.3046 5.29102 5.74072 6.8549 5.74072 8.77717V13.5071C5.74072 15.4293 7.3046 16.9932 9.22687 16.9932H13.9568C15.8791 16.9932 17.4429 15.4293 17.4429 13.5071V8.77717C17.4429 6.8549 15.879 5.29102 13.9568 5.29102ZM16.2657 13.5071C16.2657 14.7822 15.2319 15.816 13.9568 15.816H9.22687C7.95171 15.816 6.91796 14.7822 6.91796 13.5071V8.77717C6.91796 7.50198 7.95171 6.46826 9.22687 6.46826H13.9568C15.2319 6.46826 16.2657 7.50198 16.2657 8.77717V13.5071Z" fill="white"/>
<path d="M11.592 8.11475C9.92316 8.11475 8.56543 9.47248 8.56543 11.1413C8.56543 12.8102 9.92316 14.1679 11.592 14.1679C13.2609 14.1679 14.6186 12.8102 14.6186 11.1413C14.6186 9.47246 13.2609 8.11475 11.592 8.11475ZM11.592 12.9907C10.5707 12.9907 9.74267 12.1627 9.74267 11.1414C9.74267 10.12 10.5707 9.29199 11.592 9.29199C12.6134 9.29199 13.4414 10.12 13.4414 11.1414C13.4414 12.1627 12.6134 12.9907 11.592 12.9907Z" fill="white"/>
<path d="M14.6249 8.86463C15.0258 8.86463 15.3507 8.53969 15.3507 8.13886C15.3507 7.73802 15.0258 7.41309 14.6249 7.41309C14.2241 7.41309 13.8992 7.73802 13.8992 8.13886C13.8992 8.53969 14.2241 8.86463 14.6249 8.86463Z" fill="white"/>
<defs>
<linearGradient id="paint0_linear_20_22893" x1="11.5918" y1="22.078" x2="11.5918" y2="0.312959" gradientUnits="userSpaceOnUse">
<stop stop-color="#F5AC48"/>
<stop offset="0.3" stop-color="#F75F60"/>
<stop offset="0.6" stop-color="#E3208A"/>
<stop offset="1" stop-color="#7D28DB"/>
</linearGradient>
</defs>
</svg>
