<svg width="23" height="23" viewBox="0 0 23 23" fill="none" xmlns="http://www.w3.org/2000/svg">
<circle cx="11.8301" cy="11.5229" r="11" fill="#1877F2"/>
<g clip-path="url(#clip0_20_22844)">
<path d="M8.75631 11.9146H10.1813V17.3299C10.1813 17.4368 10.2752 17.5234 10.391 17.5234H12.8072C12.923 17.5234 13.0168 17.4368 13.0168 17.3299V11.9401H14.655C14.7615 11.9401 14.8511 11.8664 14.8633 11.7687L15.1121 9.77508C15.1189 9.72022 15.1001 9.6653 15.0603 9.62415C15.0205 9.58296 14.9636 9.55939 14.9038 9.55939H13.0169V8.30968C13.0169 7.93296 13.2367 7.74193 13.6701 7.74193C13.7319 7.74193 14.9038 7.74193 14.9038 7.74193C15.0197 7.74193 15.1135 7.65526 15.1135 7.54838V5.71842C15.1135 5.6115 15.0197 5.52487 14.9038 5.52487H13.2036C13.1916 5.52433 13.1649 5.52344 13.1257 5.52344C12.8307 5.52344 11.8052 5.5769 10.9952 6.26477C10.0977 7.02704 10.2225 7.93973 10.2523 8.09798V9.55935H8.75631C8.64048 9.55935 8.54663 9.64598 8.54663 9.7529V11.7211C8.54663 11.828 8.64048 11.9146 8.75631 11.9146Z" fill="white"/>
</g>
<defs>
<clipPath id="clip0_20_22844">
<rect width="13" height="12" fill="white" transform="translate(5.33008 5.52295)"/>
</clipPath>
</defs>
</svg>
