<svg width="23" height="23" viewBox="0 0 23 23" fill="none" xmlns="http://www.w3.org/2000/svg">
<circle cx="11.7756" cy="11.1421" r="11" fill="#404EED"/>
<path d="M16.1433 7.16647C17.5615 9.25156 18.2618 11.6035 18 14.3111C17.9989 14.3225 17.993 14.3331 17.9835 14.34C16.9096 15.1285 15.8691 15.6071 14.8432 15.9245C14.8352 15.9269 14.8267 15.9268 14.8187 15.9241C14.8108 15.9214 14.804 15.9164 14.7991 15.9096C14.5621 15.5798 14.3467 15.2321 14.1581 14.867C14.1472 14.8455 14.1571 14.8196 14.1794 14.8112C14.5214 14.6823 14.8466 14.5279 15.1595 14.345C15.1841 14.3306 15.1857 14.2952 15.1629 14.2783C15.0965 14.229 15.0308 14.1772 14.9678 14.1254C14.956 14.1158 14.9402 14.1139 14.9269 14.1204C12.8959 15.0582 10.6711 15.0582 8.61618 14.1204C8.60284 14.1144 8.58699 14.1165 8.57553 14.1259C8.51274 14.1777 8.44682 14.229 8.38105 14.2783C8.35829 14.2952 8.36017 14.3306 8.38497 14.345C8.6978 14.5244 9.02303 14.6823 9.36458 14.8118C9.38671 14.8203 9.39722 14.8455 9.38624 14.867C9.20165 15.2326 8.9863 15.5803 8.74489 15.9101C8.73437 15.9234 8.71711 15.9295 8.70078 15.9245C7.67974 15.6071 6.63924 15.1285 5.5653 14.34C5.55636 14.3331 5.54992 14.3221 5.54898 14.3106C5.33017 11.9686 5.7761 9.59719 7.40396 7.166C7.40788 7.15957 7.41385 7.15455 7.42075 7.15156C8.22173 6.78396 9.07985 6.51351 9.97673 6.35906C9.99305 6.35655 10.0094 6.36408 10.0179 6.37852C10.1287 6.57473 10.2553 6.82634 10.341 7.03196C11.2864 6.88755 12.2466 6.88755 13.2117 7.03196C13.2974 6.83073 13.4197 6.57473 13.53 6.37852C13.534 6.37136 13.5401 6.36562 13.5475 6.36213C13.5548 6.35863 13.5631 6.35756 13.5712 6.35906C14.4685 6.51398 15.3266 6.78443 16.127 7.15156C16.1341 7.15455 16.1399 7.15957 16.1433 7.16647V7.16647ZM10.8217 11.6195C10.8315 10.9271 10.3268 10.3542 9.6931 10.3542C9.06462 10.3542 8.5647 10.9221 8.5647 11.6195C8.5647 12.3167 9.07451 12.8846 9.6931 12.8846C10.3217 12.8846 10.8217 12.3167 10.8217 11.6195V11.6195ZM14.994 11.6195C15.0039 10.9271 14.4991 10.3542 13.8656 10.3542C13.237 10.3542 12.7371 10.9221 12.7371 11.6195C12.7371 12.3167 13.2469 12.8846 13.8656 12.8846C14.4991 12.8846 14.994 12.3167 14.994 11.6195V11.6195Z" fill="white"/>
</svg>
