<svg width="23" height="23" viewBox="0 0 23 23" fill="none" xmlns="http://www.w3.org/2000/svg">
<path d="M11.8218 22.3325C17.8969 22.3325 22.8218 17.4077 22.8218 11.3325C22.8218 5.25739 17.8969 0.33252 11.8218 0.33252C5.74665 0.33252 0.821777 5.25739 0.821777 11.3325C0.821777 17.4077 5.74665 22.3325 11.8218 22.3325Z" fill="#BE1200"/>
<path d="M6.44435 11.049C6.18967 11.4486 6.08292 12.7054 6.17167 13.5386C6.20254 13.8134 6.25399 14.0429 6.3273 14.1803C6.42891 14.3693 6.59998 14.4828 6.79421 14.4891C6.91897 14.4954 6.99743 14.474 9.34481 13.734C9.34481 13.734 10.388 13.4075 10.3931 13.405C10.6529 13.3395 10.8291 13.105 10.8459 12.8063C10.8626 12.4987 10.7018 12.2277 10.4343 12.1306C10.4343 12.1306 9.69853 11.8369 9.69724 11.8369C7.17365 10.8171 7.06046 10.7768 6.93312 10.7755C6.73761 10.7692 6.56525 10.865 6.44435 11.049V11.049ZM12.0884 18.6489C12.1295 18.533 12.1347 18.4535 12.1411 16.0358C12.1411 16.0358 12.1462 14.9681 12.1475 14.9568C12.1642 14.6946 11.9919 14.4563 11.7089 14.3492C11.4169 14.2395 11.1031 14.3076 10.9269 14.5219C10.9269 14.5219 10.4124 15.1206 10.4098 15.1206C8.64253 17.1552 8.56793 17.2497 8.52548 17.3695C8.49847 17.4401 8.48947 17.5157 8.49718 17.5913C8.50747 17.6997 8.55764 17.8056 8.63996 17.9052C9.05027 18.383 11.0156 19.0914 11.6433 18.9855C11.8633 18.9489 12.0215 18.8292 12.0884 18.6489ZM16.077 17.8081C16.6699 17.5762 17.9626 15.9652 18.0539 15.3438C18.0861 15.1282 18.0166 14.9416 17.8649 14.8231C17.7658 14.75 17.6899 14.721 15.3425 13.966C15.3425 13.966 14.3135 13.6332 14.2994 13.6269C14.0499 13.5323 13.7656 13.6206 13.5752 13.8513C13.3759 14.0882 13.3463 14.4021 13.5058 14.6378L13.92 15.2984C15.313 17.5157 15.4197 17.672 15.52 17.7489C15.6744 17.8687 15.8712 17.8888 16.077 17.8081ZM14.8641 12.1003C17.5304 11.4675 17.6346 11.4335 17.7388 11.3654C17.9009 11.2583 17.9819 11.0806 17.9678 10.8637C17.9678 10.8574 17.969 10.8499 17.9678 10.8423C17.8996 10.1994 16.7523 8.53044 16.1863 8.25942C15.9857 8.16488 15.785 8.17118 15.6191 8.28085C15.5162 8.3464 15.4403 8.44599 14.0126 10.3608C14.0126 10.3608 13.3682 11.2217 13.3604 11.2306C13.1907 11.4335 13.1881 11.7234 13.354 11.973C13.5264 12.2314 13.8171 12.3562 14.0833 12.2844C14.0833 12.2844 14.073 12.3033 14.0705 12.3058C14.2016 12.2566 14.4357 12.1999 14.8641 12.1003V12.1003ZM12.1874 9.94227C12.1411 8.90609 11.8234 4.29371 11.7861 4.08068C11.7321 3.88655 11.5777 3.74915 11.3565 3.69369C10.6748 3.52855 8.07273 4.24329 7.59039 4.72986C7.43475 4.88869 7.37816 5.08282 7.42446 5.25552C7.50035 5.40804 10.7249 10.3797 10.7249 10.3797C11.2009 11.1373 11.5906 11.0188 11.7179 10.9797C11.844 10.9432 12.2311 10.8247 12.1874 9.94227" fill="white"/>
</svg>
