<svg width="23" height="23" viewBox="0 0 23 23" fill="none" xmlns="http://www.w3.org/2000/svg">
<path d="M11.6379 22.3325C17.7131 22.3325 22.6379 17.4077 22.6379 11.3325C22.6379 5.25739 17.7131 0.33252 11.6379 0.33252C5.56281 0.33252 0.637939 5.25739 0.637939 11.3325C0.637939 17.4077 5.56281 22.3325 11.6379 22.3325Z" fill="#CB2027"/>
<path d="M12.4996 14.3196C11.6925 14.2572 11.3533 13.857 10.7203 13.4727C10.3724 15.2981 9.94726 17.0478 8.68793 17.9619C8.29874 15.2031 9.2585 13.1309 9.70422 10.9315C8.94448 9.65253 9.79557 7.07832 11.398 7.71264C13.3703 8.49256 9.69052 12.4681 12.1608 12.9646C14.7398 13.483 15.7926 8.4897 14.1932 6.86555C11.8824 4.52066 7.46687 6.81226 8.00984 10.169C8.14211 10.9897 8.99016 11.2388 8.3486 12.3712C6.86966 12.0437 6.4285 10.8772 6.48522 9.32214C6.57676 6.77667 8.77244 4.99436 10.9748 4.74771C13.76 4.43597 16.3742 5.77047 16.7351 8.39036C17.141 11.3473 15.4776 14.5495 12.4996 14.3196Z" fill="#F1F2F2"/>
</svg>
