<svg width="23" height="23" viewBox="0 0 23 23" fill="none" xmlns="http://www.w3.org/2000/svg">
<circle cx="11.7297" cy="11.3325" r="11" fill="#FF0000"/>
<path d="M12.0388 16.1947L9.17774 16.1418C8.25136 16.1234 7.32271 16.1602 6.41455 15.9692C5.03295 15.684 4.93508 14.2853 4.83265 13.1121C4.69153 11.4627 4.74616 9.78343 5.01246 8.14784C5.16269 7.22998 5.75447 6.68248 6.66947 6.62267C9.75814 6.40643 12.8673 6.43174 15.9491 6.53296C16.2746 6.54216 16.6024 6.59277 16.9233 6.65028C18.5075 6.93093 18.5462 8.51591 18.6486 9.85015C18.751 11.1982 18.7078 12.5531 18.512 13.892C18.355 15.0008 18.0545 15.9301 16.7868 16.0198C15.198 16.1372 13.6457 16.2315 12.0525 16.2016C12.0525 16.1947 12.0434 16.1947 12.0388 16.1947V16.1947ZM10.3568 13.3882C11.554 12.6935 12.7285 12.0102 13.9189 11.3201C12.7194 10.6254 11.5472 9.94216 10.3568 9.25204V13.3882Z" fill="white"/>
</svg>
