<svg width="18" height="19" viewBox="0 0 18 19" fill="none" xmlns="http://www.w3.org/2000/svg">
<path fill-rule="evenodd" clip-rule="evenodd" d="M16.1121 10.6886C16.434 10.8596 16.6824 11.1296 16.8571 11.3996C17.1974 11.9576 17.1698 12.6416 16.8387 13.2446L16.1949 14.3246C15.8546 14.9006 15.2199 15.2606 14.5669 15.2606C14.245 15.2606 13.8863 15.1706 13.592 14.9906C13.3528 14.8376 13.0769 14.7836 12.7826 14.7836C11.872 14.7836 11.1086 15.5306 11.081 16.4216C11.081 17.4566 10.2348 18.2666 9.17711 18.2666H7.92623C6.85931 18.2666 6.01313 17.4566 6.01313 16.4216C5.99473 15.5306 5.23133 14.7836 4.32077 14.7836C4.01725 14.7836 3.74132 14.8376 3.51138 14.9906C3.21705 15.1706 2.84915 15.2606 2.53643 15.2606C1.8742 15.2606 1.23957 14.9006 0.899253 14.3246L0.264618 13.2446C-0.075694 12.6596 -0.0940892 11.9576 0.246223 11.3996C0.393384 11.1296 0.669313 10.8596 0.982032 10.6886C1.23957 10.5626 1.40512 10.3556 1.56148 10.1126C2.02136 9.3386 1.74543 8.3216 0.963637 7.8626C0.0530727 7.3496 -0.241251 6.2066 0.283013 5.3156L0.899253 4.2536C1.43272 3.3626 2.57322 3.0476 3.49298 3.5696C4.29317 4.0016 5.3325 3.7136 5.80158 2.9486C5.94874 2.6966 6.03152 2.4266 6.01313 2.1566C5.99473 1.8056 6.09591 1.4726 6.27066 1.2026C6.61097 0.644602 7.22721 0.284602 7.89864 0.266602H9.1955C9.87613 0.266602 10.4924 0.644602 10.8327 1.2026C10.9982 1.4726 11.1086 1.8056 11.081 2.1566C11.0626 2.4266 11.1454 2.6966 11.2926 2.9486C11.7616 3.7136 12.801 4.0016 13.6104 3.5696C14.5209 3.0476 15.6706 3.3626 16.1949 4.2536L16.8111 5.3156C17.3446 6.2066 17.0503 7.3496 16.1305 7.8626C15.3487 8.3216 15.0728 9.3386 15.5419 10.1126C15.689 10.3556 15.8546 10.5626 16.1121 10.6886ZM5.94865 9.27565C5.94865 10.6887 7.11675 11.8137 8.56077 11.8137C10.0048 11.8137 11.1453 10.6887 11.1453 9.27565C11.1453 7.86265 10.0048 6.72865 8.56077 6.72865C7.11675 6.72865 5.94865 7.86265 5.94865 9.27565Z" fill="#408BFC"/>
</svg>
