<svg width="23" height="23" viewBox="0 0 23 23" fill="none" xmlns="http://www.w3.org/2000/svg">
<path d="M11.2297 22.9517C17.3049 22.9517 22.2297 18.0268 22.2297 11.9517C22.2297 5.87653 17.3049 0.95166 11.2297 0.95166C5.1546 0.95166 0.229736 5.87653 0.229736 11.9517C0.229736 18.0268 5.1546 22.9517 11.2297 22.9517Z" fill="#9146FF"/>
<path d="M16.2337 12.2744L14.2342 14.1712H12.2321L10.4802 15.8308V14.1712H8.2278V7.06361H16.2337V12.2744ZM7.72727 6.11523L5.22461 8.48354V17.0137H8.2278V19.382L10.7305 17.0137H12.7326L17.2347 12.7486V6.11523H7.72727ZM14.7347 8.79703H13.7337V11.6395H14.7347V8.79703ZM10.9807 8.78386H11.9818V11.6264H10.9807V8.78386Z" fill="white"/>
</svg>
