<svg width="22" height="22" viewBox="0 0 22 22" fill="none" xmlns="http://www.w3.org/2000/svg">
<circle cx="10.7759" cy="11.0066" r="10.4358" fill="#1B1B1B"/>
<path d="M10.7759 4.43652C7.05587 4.43652 4.03931 7.45256 4.03931 11.1731C4.03931 14.1496 5.96955 16.6747 8.64623 17.5655C8.98289 17.6279 9.10652 17.4194 9.10652 17.2414C9.10652 17.0808 9.10023 16.5501 9.09738 15.9872C7.2232 16.3947 6.82773 15.1924 6.82773 15.1924C6.52129 14.4137 6.07976 14.2067 6.07976 14.2067C5.46857 13.7886 6.12583 13.7971 6.12583 13.7971C6.80232 13.8447 7.15853 14.4914 7.15853 14.4914C7.75936 15.5213 8.73446 15.2235 9.11888 15.0514C9.17932 14.616 9.35394 14.3188 9.54657 14.1506C8.05031 13.9802 6.47734 13.4026 6.47734 10.8213C6.47734 10.0859 6.7405 9.48487 7.17147 9.01312C7.10152 8.84342 6.87095 8.15826 7.23672 7.23034C7.23672 7.23034 7.80242 7.04927 9.08977 7.92088C9.62709 7.77157 10.2034 7.69676 10.7759 7.69422C11.3484 7.69676 11.9252 7.77157 12.4635 7.92088C13.7494 7.04927 14.3143 7.23034 14.3143 7.23034C14.6809 8.15826 14.4503 8.84342 14.3803 9.01312C14.8122 9.48487 15.0736 10.0858 15.0736 10.8213C15.0736 13.4087 13.4977 13.9785 11.9976 14.1452C12.2392 14.3543 12.4545 14.7643 12.4545 15.3927C12.4545 16.2941 12.4467 17.0195 12.4467 17.2414C12.4467 17.4207 12.5679 17.6308 12.9095 17.5646C15.5847 16.6728 17.5125 14.1486 17.5125 11.1731C17.5125 7.45256 14.4963 4.43652 10.7759 4.43652Z" fill="white"/>
<path d="M6.56227 14.0327C6.54747 14.0661 6.49475 14.0762 6.44682 14.0532C6.39795 14.0313 6.37048 13.9856 6.38633 13.952C6.40086 13.9176 6.45359 13.908 6.50235 13.9311C6.55133 13.953 6.57923 13.9991 6.56227 14.0327V14.0327ZM6.89364 14.3284C6.86152 14.3582 6.7987 14.3443 6.75606 14.2972C6.712 14.2503 6.70376 14.1875 6.73636 14.1572C6.76948 14.1275 6.8304 14.1414 6.87457 14.1884C6.91863 14.2359 6.92719 14.2983 6.89359 14.3284L6.89364 14.3284ZM7.12099 14.7066C7.07967 14.7353 7.01215 14.7084 6.97046 14.6485C6.9292 14.5887 6.9292 14.5168 6.97136 14.488C7.01321 14.4592 7.07967 14.4851 7.12194 14.5445C7.16315 14.6055 7.16315 14.6773 7.12093 14.7067L7.12099 14.7066ZM7.50541 15.1448C7.46848 15.1855 7.38986 15.1746 7.33227 15.119C7.27341 15.0647 7.25698 14.9876 7.29402 14.9469C7.33137 14.9061 7.41047 14.9176 7.46848 14.9727C7.52697 15.0269 7.54482 15.1045 7.50546 15.1448H7.50541ZM8.00226 15.2927C7.98604 15.3455 7.91028 15.3694 7.83398 15.347C7.7578 15.324 7.70792 15.2621 7.7233 15.2088C7.73915 15.1557 7.81523 15.1307 7.8921 15.1547C7.96818 15.1777 8.01816 15.2391 8.00231 15.2927H8.00226ZM8.5678 15.3554C8.5697 15.411 8.50498 15.4571 8.42488 15.4581C8.34431 15.4598 8.27916 15.4149 8.27832 15.3603C8.27832 15.3041 8.34156 15.2585 8.42208 15.2572C8.50218 15.2556 8.5678 15.3002 8.5678 15.3554V15.3554ZM9.12329 15.3342C9.13291 15.3884 9.07722 15.444 8.99771 15.4588C8.91951 15.4731 8.84713 15.4397 8.83715 15.3859C8.82742 15.3304 8.88417 15.2747 8.9622 15.2603C9.04188 15.2465 9.11315 15.279 9.12329 15.3342" fill="white"/>
</svg>
