<svg width="23" height="23" viewBox="0 0 23 23" fill="none" xmlns="http://www.w3.org/2000/svg">
<path d="M11.2756 22.7612C17.3508 22.7612 22.2756 17.8364 22.2756 11.7612C22.2756 5.6861 17.3508 0.76123 11.2756 0.76123C5.2005 0.76123 0.275635 5.6861 0.275635 11.7612C0.275635 17.8364 5.2005 22.7612 11.2756 22.7612Z" fill="#202020"/>
<path d="M17.5293 8.26972H17.0346C16.8509 8.26972 16.5912 8.53466 16.5912 8.70424V14.8515C16.5912 15.0213 16.8509 15.2528 17.0346 15.2528H17.5293V16.712H13.0476V15.2528H13.9856V8.79081H13.9396L11.7491 16.712H10.0533L7.89102 8.79081H7.8363V15.2528H8.77433V16.712H5.02222V15.2528H5.50271C5.70053 15.2528 5.96024 15.0213 5.96024 14.8515V8.70419C5.96024 8.53461 5.70053 8.26967 5.50271 8.26967H5.02222V6.81055H9.71402L11.2544 12.5429H11.2969L12.8515 6.81055H17.5293V8.26972Z" fill="white"/>
</svg>
