<svg width="23" height="23" viewBox="0 0 23 23" fill="none" xmlns="http://www.w3.org/2000/svg">
<circle cx="11.1838" cy="11.7612" r="11" fill="#EA4D89"/>
<path fill-rule="evenodd" clip-rule="evenodd" d="M5.84337 16.4681C4.64522 15.1102 4.04614 13.5412 4.04614 11.7611C4.04614 11.7154 4.049 11.6584 4.0547 11.5899C4.06042 11.5215 4.06326 11.4644 4.06326 11.4188C4.28007 11.4302 4.61099 11.4359 5.05601 11.4359C7.33822 11.4359 9.46066 11.1221 11.4233 10.4945C11.5831 10.814 11.7485 11.1734 11.9197 11.5728C10.79 11.8239 9.63182 12.4343 8.44507 13.4043C7.25834 14.3742 6.3911 15.3955 5.84337 16.4681ZM5.38123 10.0323C4.89057 10.0323 4.5197 10.0209 4.26866 9.9981C4.53112 9.01676 4.98471 8.12099 5.62941 7.31082C6.27414 6.50065 7.04724 5.86734 7.94869 5.41089C8.9871 6.43788 9.93992 7.72161 10.8071 9.26209C9.0955 9.77559 7.28687 10.0323 5.38123 10.0323ZM11.1837 18.8987C9.56336 18.8987 8.10846 18.3966 6.81901 17.3924C7.3325 16.3768 8.12272 15.4069 9.18964 14.4826C10.2566 13.5583 11.3149 12.9821 12.3647 12.7538C13.0266 14.5796 13.4716 16.4681 13.6998 18.4194C12.8668 18.7389 12.0281 18.8987 11.1837 18.8987ZM12.2278 8.7486C11.372 7.1967 10.442 5.90157 9.43782 4.86317C10.0198 4.70342 10.6017 4.62354 11.1837 4.62354C12.8953 4.62354 14.413 5.17126 15.7367 6.26671C14.9493 7.27089 13.7797 8.09818 12.2278 8.7486ZM13.426 11.3503C13.2092 10.7912 13.0152 10.329 12.844 9.96387C14.6127 9.18793 15.8679 8.24652 16.6096 7.13965C17.6366 8.34922 18.1957 9.72994 18.287 11.2818C17.591 11.2476 16.8892 11.2305 16.1817 11.2305C15.189 11.2305 14.2704 11.2704 13.426 11.3503ZM15.0349 17.7519C14.8295 15.9717 14.4358 14.2373 13.8539 12.5485C14.6526 12.4914 15.3658 12.4629 15.9934 12.4629C16.6781 12.4629 17.4369 12.4914 18.2699 12.5485C18.1558 13.6097 17.8135 14.5967 17.2429 15.5096C16.6724 16.4225 15.9364 17.1699 15.0349 17.7519Z" fill="white"/>
</svg>
