<svg width="16" height="16" viewBox="0 0 16 16" fill="none" xmlns="http://www.w3.org/2000/svg">
<path fill-rule="evenodd" clip-rule="evenodd" d="M4.4056 0.22998H11.1422C13.7763 0.22998 15.54 2.07925 15.54 4.82983V11.1779C15.54 13.9208 13.7763 15.77 11.1422 15.77H4.4056C1.77157 15.77 0 13.9208 0 11.1779V4.82983C0 2.07925 1.77157 0.22998 4.4056 0.22998ZM6.36672 10.3248C6.49959 10.4576 6.67364 10.5237 6.84769 10.5237C7.02173 10.5237 7.19578 10.4576 7.32865 10.3248L11.0163 6.63711C11.282 6.37138 11.282 5.94092 11.0163 5.67518C10.7506 5.40945 10.3209 5.40945 10.0552 5.67518L6.84769 8.88265L5.48405 7.51901C5.21831 7.25327 4.78863 7.25405 4.52289 7.51979C4.25716 7.78474 4.25716 8.2152 4.52289 8.48094L6.36672 10.3248Z" fill="#408BFC"/>
</svg>
