<svg width="141" height="34" viewBox="0 0 141 34" fill="none" xmlns="http://www.w3.org/2000/svg">
<path fill-rule="evenodd" clip-rule="evenodd" d="M16.4454 33.4454C25.5279 33.4454 32.8907 26.0826 32.8907 17C32.8907 11.1198 29.8045 5.96039 25.1636 3.05319L25.1865 3.07039L21.373 6.83807C19.4383 8.74957 19.4213 11.8681 21.335 13.8006C23.2355 15.7197 23.2338 18.8119 21.3314 20.7289L10.0089 32.1381C11.9858 32.9797 14.1612 33.4454 16.4454 33.4454ZM7.28064 30.657L10.4626 27.507C12.3604 25.6284 12.375 22.5667 10.4954 20.67C8.62793 18.7855 8.62847 15.7481 10.4966 13.8644L22.5394 1.72075C20.6548 0.968431 18.5984 0.554688 16.4454 0.554688C7.36284 0.554688 0 7.91752 0 17C0 22.6896 2.88928 27.7043 7.28064 30.657Z" fill="url(#paint0_linear_2565_30699)"/>
<path d="M40.4199 11.5083V8.76557H53.3424V11.5083H48.5253V24.5H45.237V11.5083H40.4199ZM59.0757 24.7305C57.8618 24.7305 56.817 24.4846 55.9411 23.9929C55.0704 23.4961 54.3994 22.7944 53.9282 21.8878C53.457 20.9761 53.2214 19.898 53.2214 18.6534C53.2214 17.4395 53.457 16.3741 53.9282 15.4573C54.3994 14.5405 55.0627 13.826 55.9181 13.3138C56.7786 12.8016 57.7876 12.5455 58.9451 12.5455C59.7236 12.5455 60.4484 12.671 61.1194 12.922C61.7954 13.1678 62.3845 13.5392 62.8864 14.036C63.3935 14.5328 63.7879 15.1577 64.0696 15.9106C64.3513 16.6584 64.4921 17.5342 64.4921 18.5381V19.437H54.5275V17.4087H61.4113C61.4113 16.9375 61.3089 16.5201 61.104 16.1564C60.8991 15.7928 60.6148 15.5085 60.2512 15.3037C59.8927 15.0937 59.4752 14.9887 58.9989 14.9887C58.5021 14.9887 58.0616 15.1039 57.6774 15.3344C57.2984 15.5597 57.0014 15.8645 56.7862 16.2486C56.5711 16.6277 56.461 17.0502 56.4559 17.5163V19.4447C56.4559 20.0286 56.5634 20.5331 56.7786 20.9582C56.9988 21.3833 57.3087 21.7111 57.7082 21.9416C58.1077 22.1721 58.5815 22.2873 59.1295 22.2873C59.4932 22.2873 59.8261 22.2361 60.1283 22.1337C60.4305 22.0313 60.6891 21.8776 60.9042 21.6727C61.1194 21.4678 61.2833 21.2169 61.3959 20.9198L64.423 21.1196C64.2693 21.8469 63.9543 22.482 63.478 23.0249C63.0068 23.5627 62.3973 23.9827 61.6495 24.2849C60.9068 24.582 60.0489 24.7305 59.0757 24.7305ZM71.9598 24.7305C70.7511 24.7305 69.7113 24.4744 68.8406 23.9622C67.975 23.4449 67.3092 22.7278 66.8431 21.811C66.3821 20.8942 66.1516 19.8391 66.1516 18.6457C66.1516 17.4369 66.3847 16.3767 66.8507 15.465C67.322 14.5482 67.9904 13.8337 68.856 13.3215C69.7216 12.8042 70.7511 12.5455 71.9445 12.5455C72.974 12.5455 73.8754 12.7325 74.6488 13.1064C75.4222 13.4803 76.0343 14.0053 76.485 14.6813C76.9357 15.3574 77.1841 16.1513 77.2302 17.063H74.1417C74.0547 16.474 73.8242 16.0002 73.4503 15.6417C73.0815 15.278 72.5975 15.0962 71.9982 15.0962C71.4912 15.0962 71.0481 15.2345 70.6691 15.5111C70.2952 15.7826 70.0033 16.1795 69.7933 16.7019C69.5833 17.2244 69.4783 17.8569 69.4783 18.5996C69.4783 19.3525 69.5807 19.9927 69.7856 20.5203C69.9956 21.0478 70.2901 21.4499 70.6691 21.7265C71.0481 22.0031 71.4912 22.1414 71.9982 22.1414C72.3721 22.1414 72.7076 22.0645 73.0047 21.9109C73.3069 21.7572 73.5553 21.5344 73.7499 21.2425C73.9497 20.9454 74.0803 20.5894 74.1417 20.1746H77.2302C77.179 21.076 76.9332 21.8699 76.4927 22.5562C76.0573 23.2375 75.4555 23.7701 74.6872 24.1543C73.9189 24.5384 73.0098 24.7305 71.9598 24.7305ZM82.5986 17.6776V24.5H79.3257V8.76557H82.5064V14.7812H82.6447C82.9111 14.0846 83.3413 13.5392 83.9354 13.1448C84.5296 12.7453 85.2748 12.5455 86.1711 12.5455C86.9906 12.5455 87.7051 12.7248 88.3146 13.0833C88.9293 13.4367 89.4056 13.9464 89.7437 14.6122C90.0868 15.2729 90.2558 16.0643 90.2507 16.9862V24.5H86.9778V17.5701C86.983 16.8428 86.7986 16.2768 86.4247 15.8722C86.0559 15.4676 85.5386 15.2652 84.8727 15.2652C84.4271 15.2652 84.0328 15.36 83.6896 15.5495C83.3515 15.739 83.0852 16.0156 82.8906 16.3792C82.7011 16.7378 82.6037 17.1706 82.5986 17.6776ZM92.8879 24.5V8.76557H96.1607V14.6813H96.2606C96.404 14.3638 96.6115 14.0411 96.8829 13.7133C97.1595 13.3804 97.518 13.1038 97.9585 12.8836C98.4041 12.6582 98.9573 12.5455 99.618 12.5455C100.478 12.5455 101.272 12.7709 102 13.2216C102.727 13.6672 103.308 14.3407 103.744 15.2422C104.179 16.1385 104.397 17.2628 104.397 18.615C104.397 19.9313 104.184 21.0427 103.759 21.9493C103.339 22.8508 102.765 23.5345 102.038 24.0006C101.316 24.4616 100.507 24.6921 99.6103 24.6921C98.9752 24.6921 98.4349 24.5871 97.9893 24.3771C97.5488 24.1671 97.1877 23.9033 96.906 23.5857C96.6243 23.2631 96.4091 22.9378 96.2606 22.61H96.1146V24.5H92.8879ZM96.0916 18.5996C96.0916 19.3013 96.1889 19.9134 96.3835 20.4358C96.5782 20.9582 96.8599 21.3654 97.2287 21.6574C97.5974 21.9442 98.0456 22.0876 98.5731 22.0876C99.1058 22.0876 99.5565 21.9416 99.9253 21.6497C100.294 21.3526 100.573 20.9429 100.763 20.4204C100.957 19.8929 101.055 19.2859 101.055 18.5996C101.055 17.9184 100.96 17.3191 100.77 16.8018C100.581 16.2845 100.302 15.8799 99.933 15.5879C99.5642 15.296 99.1109 15.15 98.5731 15.15C98.0405 15.15 97.5897 15.2908 97.221 15.5726C96.8573 15.8543 96.5782 16.2538 96.3835 16.7711C96.1889 17.2884 96.0916 17.8979 96.0916 18.5996ZM106.581 24.5V12.6992H109.853V24.5H106.581ZM108.225 11.178C107.738 11.178 107.321 11.0166 106.972 10.694C106.629 10.3662 106.458 9.97433 106.458 9.51848C106.458 9.06776 106.629 8.68106 106.972 8.35838C107.321 8.03058 107.738 7.86667 108.225 7.86667C108.711 7.86667 109.126 8.03058 109.469 8.35838C109.818 8.68106 109.992 9.06776 109.992 9.51848C109.992 9.97433 109.818 10.3662 109.469 10.694C109.126 11.0166 108.711 11.178 108.225 11.178ZM118.752 12.6992V15.1577H111.645V12.6992H118.752ZM113.259 9.87189H116.532V20.8737C116.532 21.1759 116.578 21.4115 116.67 21.5805C116.762 21.7444 116.89 21.8597 117.054 21.9263C117.223 21.9928 117.418 22.0261 117.638 22.0261C117.792 22.0261 117.945 22.0133 118.099 21.9877C118.253 21.957 118.371 21.9339 118.452 21.9186L118.967 24.354C118.803 24.4052 118.573 24.4641 118.276 24.5307C117.979 24.6024 117.618 24.646 117.192 24.6613C116.404 24.6921 115.712 24.5871 115.118 24.3463C114.529 24.1056 114.071 23.7317 113.743 23.2247C113.415 22.7176 113.254 22.0773 113.259 21.3039V9.87189ZM129.072 8.76557L132.245 14.1282H132.368L135.556 8.76557H139.313L134.511 16.6328L139.421 24.5H135.595L132.368 19.1297H132.245L129.018 24.5H125.208L130.132 16.6328L125.3 8.76557H129.072Z" fill="#1B1E3E"/>
<defs>
<linearGradient id="paint0_linear_2565_30699" x1="16.4454" y1="0.554687" x2="16.4454" y2="33.4454" gradientUnits="userSpaceOnUse">
<stop stop-color="#282B4A"/>
<stop offset="1" stop-color="#121429"/>
</linearGradient>
</defs>
</svg>
