<svg width="19" height="19" viewBox="0 0 19 19" fill="none" xmlns="http://www.w3.org/2000/svg">
<path d="M14.8638 11.5278C14.6241 11.7621 14.5139 12.101 14.5685 12.4334L15.3913 17.0271C15.4607 17.4165 15.2978 17.8105 14.9748 18.0355C14.6583 18.2689 14.2372 18.2969 13.892 18.1102L9.79296 15.9534C9.65043 15.8768 9.49217 15.8358 9.33021 15.8311H9.0794C8.9924 15.8442 8.90726 15.8722 8.82951 15.9151L4.72955 18.0822C4.52687 18.1849 4.29734 18.2213 4.07245 18.1849C3.52455 18.0803 3.15898 17.5537 3.24875 16.9982L4.07245 12.4045C4.12705 12.0693 4.01692 11.7285 3.77721 11.4904L0.435234 8.22255C0.155733 7.94898 0.0585555 7.53816 0.186274 7.16749C0.310291 6.79776 0.626812 6.52792 1.00904 6.46724L5.60878 5.79405C5.95861 5.75764 6.26588 5.54289 6.42321 5.22544L8.45006 1.03323C8.49818 0.939864 8.56019 0.853966 8.63516 0.781139L8.71845 0.715782C8.76195 0.667231 8.81193 0.627082 8.86746 0.594404L8.96834 0.557057L9.12567 0.491699H9.51531C9.8633 0.528113 10.1696 0.73819 10.3297 1.05191L12.3834 5.22544C12.5315 5.53076 12.8193 5.7427 13.1516 5.79405L17.7513 6.46724C18.14 6.52326 18.4649 6.79402 18.5935 7.16749C18.7148 7.5419 18.6102 7.95272 18.3251 8.22255L14.8638 11.5278Z" fill="#1B1E3E"/>
</svg>
