<svg width="388" height="389" viewBox="0 0 388 389" fill="none" xmlns="http://www.w3.org/2000/svg">
<rect width="388" height="388" transform="translate(0 0.360352)" fill="#EBEBF0"/>
<mask id="mask0_1052_18294" style="mask-type:alpha" maskUnits="userSpaceOnUse" x="0" y="0" width="388" height="389">
<rect y="0.360352" width="388" height="388" fill="#C4C4C4"/>
</mask>
<g mask="url(#mask0_1052_18294)">
<g filter="url(#filter0_d_1052_18294)">
<rect x="73" y="52" width="243" height="380" rx="24" fill="white"/>
<rect x="73.25" y="52.25" width="242.5" height="379.5" rx="23.75" stroke="#EBEBF0" stroke-width="0.5"/>
</g>
<circle opacity="0.3" cx="123.554" cy="107.554" r="16.5541" fill="#EBEBF0"/>
<g opacity="0.5">
<path d="M124 110.533C120.225 110.533 117 111.128 117 113.509C117 115.891 120.205 116.507 124 116.507C127.775 116.507 131 115.912 131 113.531C131 111.149 127.796 110.533 124 110.533Z" fill="#DBDBDD"/>
<path opacity="0.4" d="M124 108.264C126.572 108.264 128.633 106.203 128.633 103.632C128.633 101.061 126.572 99 124 99C121.43 99 119.368 101.061 119.368 103.632C119.368 106.203 121.43 108.264 124 108.264Z" fill="#DBDBDD"/>
</g>
<rect x="154.298" y="98.0947" width="127.703" height="3.5" rx="1.75" fill="#EBEBF0"/>
<rect x="154.298" y="113.466" width="96.9595" height="3.5" rx="1.75" fill="url(#paint0_linear_1052_18294)"/>
<circle opacity="0.3" cx="123.554" cy="155.662" r="16.5541" fill="#EBEBF0"/>
<g opacity="0.5">
<path d="M124 158.533C120.225 158.533 117 159.128 117 161.509C117 163.891 120.205 164.507 124 164.507C127.775 164.507 131 163.912 131 161.531C131 159.149 127.796 158.533 124 158.533Z" fill="#DBDBDD"/>
<path opacity="0.4" d="M124 156.264C126.572 156.264 128.633 154.203 128.633 151.632C128.633 149.061 126.572 147 124 147C121.43 147 119.368 149.061 119.368 151.632C119.368 154.203 121.43 156.264 124 156.264Z" fill="#DBDBDD"/>
</g>
<rect x="154" y="146.081" width="115" height="3.5" rx="1.75" fill="#EBEBF0"/>
<rect x="154" y="161.081" width="86" height="3.5" rx="1.75" fill="url(#paint1_linear_1052_18294)"/>
<circle opacity="0.3" cx="123.554" cy="203.77" r="16.5541" fill="#EBEBF0"/>
<g opacity="0.5">
<path d="M124 206.533C120.225 206.533 117 207.128 117 209.509C117 211.891 120.205 212.507 124 212.507C127.775 212.507 131 211.912 131 209.531C131 207.149 127.796 206.533 124 206.533Z" fill="#DBDBDD"/>
<path opacity="0.4" d="M124 204.264C126.572 204.264 128.633 202.203 128.633 199.632C128.633 197.061 126.572 195 124 195C121.43 195 119.368 197.061 119.368 199.632C119.368 202.203 121.43 204.264 124 204.264Z" fill="#DBDBDD"/>
</g>
<g opacity="0.5">
<path d="M124 302.533C120.225 302.533 117 303.128 117 305.509C117 307.891 120.205 308.507 124 308.507C127.775 308.507 131 307.912 131 305.531C131 303.149 127.796 302.533 124 302.533Z" fill="#DBDBDD"/>
<path opacity="0.4" d="M124 300.264C126.572 300.264 128.633 298.203 128.633 295.632C128.633 293.061 126.572 291 124 291C121.43 291 119.368 293.061 119.368 295.632C119.368 298.203 121.43 300.264 124 300.264Z" fill="#DBDBDD"/>
</g>
<rect x="154" y="194.162" width="124" height="3.5" rx="1.75" fill="#EBEBF0"/>
<rect x="154" y="210.162" width="71" height="3.5" rx="1.75" fill="url(#paint2_linear_1052_18294)"/>
<circle opacity="0.5" cx="123.554" cy="251.878" r="16.5541" fill="#EBEBF0"/>
<rect x="154" y="242.243" width="118" height="4" rx="2" fill="#EBEBF0"/>
<rect x="154" y="258.243" width="86" height="4" rx="2" fill="url(#paint3_linear_1052_18294)"/>
<circle opacity="0.5" cx="123.554" cy="299.987" r="16.5541" fill="#EBEBF0"/>
<rect x="154" y="290" width="128" height="4" rx="2" fill="#EBEBF0"/>
<rect x="154" y="306" width="79" height="3.5" rx="1.75" fill="url(#paint4_linear_1052_18294)"/>
<circle opacity="0.5" cx="123.554" cy="348.095" r="16.5541" fill="#EBEBF0"/>
<rect x="154" y="338" width="121" height="3.5" rx="1.75" fill="#EBEBF0"/>
<rect x="154" y="354.459" width="86" height="3.5" rx="1.75" fill="url(#paint5_linear_1052_18294)"/>
<rect x="80" y="258" width="229" height="130" fill="url(#paint6_linear_1052_18294)"/>
<g filter="url(#filter1_d_1052_18294)">
<rect x="39" y="223" width="255" height="74" rx="12" fill="white"/>
<rect x="39.25" y="223.25" width="254.5" height="73.5" rx="11.75" stroke="#EBEBF0" stroke-width="0.5"/>
</g>
<g filter="url(#filter2_d_1052_18294)">
<circle cx="81.7161" cy="259.716" r="20.7161" fill="white"/>
<circle cx="81.7161" cy="259.716" r="20.4661" stroke="#EBEBF0" stroke-width="0.5"/>
</g>
<path d="M81.7305 262.962C77.1636 262.962 73.2627 263.682 73.2627 266.563C73.2627 269.444 77.1392 270.189 81.7305 270.189C86.2974 270.189 90.1983 269.47 90.1983 266.589C90.1983 263.708 86.3228 262.962 81.7305 262.962Z" fill="white"/>
<path d="M81.7315 260.218C84.8424 260.218 87.335 257.725 87.335 254.615C87.335 251.505 84.8424 249.011 81.7315 249.011C78.6216 249.011 76.1279 251.505 76.1279 254.615C76.1279 257.725 78.6216 260.218 81.7315 260.218Z" fill="white"/>
<path d="M81.7305 262.962C77.1636 262.962 73.2627 263.682 73.2627 266.563C73.2627 269.444 77.1392 270.189 81.7305 270.189C86.2974 270.189 90.1983 269.47 90.1983 266.589C90.1983 263.708 86.3228 262.962 81.7305 262.962Z" fill="#408BFC"/>
<path opacity="0.4" d="M81.7315 260.218C84.8424 260.218 87.335 257.725 87.335 254.615C87.335 251.505 84.8424 249.011 81.7315 249.011C78.6216 249.011 76.1279 251.505 76.1279 254.615C76.1279 257.725 78.6216 260.218 81.7315 260.218Z" fill="#408BFC"/>
<rect x="113" y="248.878" width="159.81" height="4" rx="2" fill="#408BFC"/>
<rect x="113" y="268.115" width="121.337" height="4" rx="2" fill="url(#paint7_linear_1052_18294)"/>
</g>
<defs>
<filter id="filter0_d_1052_18294" x="53" y="38" width="283" height="420" filterUnits="userSpaceOnUse" color-interpolation-filters="sRGB">
<feFlood flood-opacity="0" result="BackgroundImageFix"/>
<feColorMatrix in="SourceAlpha" type="matrix" values="0 0 0 0 0 0 0 0 0 0 0 0 0 0 0 0 0 0 127 0" result="hardAlpha"/>
<feOffset dy="6"/>
<feGaussianBlur stdDeviation="10"/>
<feComposite in2="hardAlpha" operator="out"/>
<feColorMatrix type="matrix" values="0 0 0 0 0.12549 0 0 0 0 0.117647 0 0 0 0 0.247059 0 0 0 0.04 0"/>
<feBlend mode="normal" in2="BackgroundImageFix" result="effect1_dropShadow_1052_18294"/>
<feBlend mode="normal" in="SourceGraphic" in2="effect1_dropShadow_1052_18294" result="shape"/>
</filter>
<filter id="filter1_d_1052_18294" x="19" y="209" width="295" height="114" filterUnits="userSpaceOnUse" color-interpolation-filters="sRGB">
<feFlood flood-opacity="0" result="BackgroundImageFix"/>
<feColorMatrix in="SourceAlpha" type="matrix" values="0 0 0 0 0 0 0 0 0 0 0 0 0 0 0 0 0 0 127 0" result="hardAlpha"/>
<feOffset dy="6"/>
<feGaussianBlur stdDeviation="10"/>
<feComposite in2="hardAlpha" operator="out"/>
<feColorMatrix type="matrix" values="0 0 0 0 0.12549 0 0 0 0 0.117647 0 0 0 0 0.247059 0 0 0 0.04 0"/>
<feBlend mode="normal" in2="BackgroundImageFix" result="effect1_dropShadow_1052_18294"/>
<feBlend mode="normal" in="SourceGraphic" in2="effect1_dropShadow_1052_18294" result="shape"/>
</filter>
<filter id="filter2_d_1052_18294" x="55" y="235" width="53.4326" height="53.4321" filterUnits="userSpaceOnUse" color-interpolation-filters="sRGB">
<feFlood flood-opacity="0" result="BackgroundImageFix"/>
<feColorMatrix in="SourceAlpha" type="matrix" values="0 0 0 0 0 0 0 0 0 0 0 0 0 0 0 0 0 0 127 0" result="hardAlpha"/>
<feOffset dy="2"/>
<feGaussianBlur stdDeviation="3"/>
<feComposite in2="hardAlpha" operator="out"/>
<feColorMatrix type="matrix" values="0 0 0 0 0.105797 0 0 0 0 0.119401 0 0 0 0 0.241832 0 0 0 0.08 0"/>
<feBlend mode="normal" in2="BackgroundImageFix" result="effect1_dropShadow_1052_18294"/>
<feBlend mode="normal" in="SourceGraphic" in2="effect1_dropShadow_1052_18294" result="shape"/>
</filter>
<linearGradient id="paint0_linear_1052_18294" x1="154.298" y1="115.8" x2="250.075" y2="115.8" gradientUnits="userSpaceOnUse">
<stop stop-color="#E8E9EF" stop-opacity="0.79"/>
<stop offset="1" stop-color="#E8E9EF"/>
</linearGradient>
<linearGradient id="paint1_linear_1052_18294" x1="154" y1="163.414" x2="238.951" y2="163.414" gradientUnits="userSpaceOnUse">
<stop stop-color="#E8E9EF" stop-opacity="0.79"/>
<stop offset="1" stop-color="#E8E9EF"/>
</linearGradient>
<linearGradient id="paint2_linear_1052_18294" x1="154" y1="212.495" x2="224.134" y2="212.495" gradientUnits="userSpaceOnUse">
<stop stop-color="#E8E9EF" stop-opacity="0.79"/>
<stop offset="1" stop-color="#E8E9EF"/>
</linearGradient>
<linearGradient id="paint3_linear_1052_18294" x1="154" y1="260.91" x2="238.951" y2="260.91" gradientUnits="userSpaceOnUse">
<stop stop-color="#E8E9EF" stop-opacity="0.79"/>
<stop offset="1" stop-color="#E8E9EF"/>
</linearGradient>
<linearGradient id="paint4_linear_1052_18294" x1="154" y1="308.333" x2="232.037" y2="308.333" gradientUnits="userSpaceOnUse">
<stop stop-color="#E8E9EF" stop-opacity="0.79"/>
<stop offset="1" stop-color="#E8E9EF"/>
</linearGradient>
<linearGradient id="paint5_linear_1052_18294" x1="154" y1="356.793" x2="238.951" y2="356.793" gradientUnits="userSpaceOnUse">
<stop stop-color="#E8E9EF" stop-opacity="0.79"/>
<stop offset="1" stop-color="#E8E9EF"/>
</linearGradient>
<linearGradient id="paint6_linear_1052_18294" x1="194.5" y1="258" x2="194.5" y2="388" gradientUnits="userSpaceOnUse">
<stop stop-color="white" stop-opacity="0"/>
<stop offset="1" stop-color="white"/>
</linearGradient>
<linearGradient id="paint7_linear_1052_18294" x1="113" y1="270.781" x2="232.858" y2="270.781" gradientUnits="userSpaceOnUse">
<stop stop-color="#E8E9EF" stop-opacity="0.79"/>
<stop offset="1" stop-color="#E8E9EF"/>
</linearGradient>
</defs>
</svg>
