<svg width="388" height="389" viewBox="0 0 388 389" fill="none" xmlns="http://www.w3.org/2000/svg">
<rect width="388" height="388" transform="translate(0 0.360352)" fill="#EBEBF0"/>
<mask id="mask0_1052_18296" style="mask-type:alpha" maskUnits="userSpaceOnUse" x="0" y="0" width="388" height="389">
<rect y="0.360352" width="388" height="388" fill="#C4C4C4"/>
</mask>
<g mask="url(#mask0_1052_18296)">
<g filter="url(#filter0_d_1052_18296)">
<circle cx="93.5" cy="119.5" r="30.5" fill="white"/>
<circle cx="93.5" cy="119.5" r="30.25" stroke="#EBEBF0" stroke-width="0.5"/>
</g>
<path fill-rule="evenodd" clip-rule="evenodd" d="M79.1211 119.5C79.1211 113.756 79.1211 110.885 80.4898 108.816C81.1009 107.892 81.892 107.101 82.8157 106.49C84.8842 105.122 87.756 105.122 93.4997 105.122C99.2433 105.122 102.115 105.122 104.184 106.49C105.107 107.101 105.898 107.892 106.51 108.816C107.878 110.885 107.878 113.756 107.878 119.5C107.878 125.244 107.878 128.116 106.51 130.184C105.898 131.108 105.107 131.899 104.184 132.51C102.115 133.879 99.2433 133.879 93.4997 133.879C87.756 133.879 84.8842 133.879 82.8157 132.51C81.892 131.899 81.1009 131.108 80.4898 130.184C79.1211 128.116 79.1211 125.244 79.1211 119.5ZM100.943 119.501C100.943 123.612 97.6106 126.944 93.4994 126.944C89.3882 126.944 86.0554 123.612 86.0554 119.501C86.0554 115.389 89.3882 112.057 93.4994 112.057C97.6106 112.057 100.943 115.389 100.943 119.501ZM93.4994 124.426C96.2197 124.426 98.4249 122.221 98.4249 119.501C98.4249 116.78 96.2197 114.575 93.4994 114.575C90.7792 114.575 88.5739 116.78 88.5739 119.501C88.5739 122.221 90.7792 124.426 93.4994 124.426ZM101.237 113.432C102.203 113.432 102.986 112.649 102.986 111.683C102.986 110.717 102.203 109.933 101.237 109.933C100.271 109.933 99.4883 110.717 99.4883 111.683C99.4883 112.649 100.271 113.432 101.237 113.432Z" fill="#DBDBDD"/>
<g filter="url(#filter1_d_1052_18296)">
<rect x="45" y="140" width="299" height="380" rx="12" fill="white"/>
<rect x="45.25" y="140.25" width="298.5" height="379.5" rx="11.75" stroke="#EBEBF0" stroke-width="0.5"/>
</g>
<line opacity="0.5" x1="71.001" y1="298.493" x2="318.448" y2="298.493" stroke="#F8F9FA"/>
<line opacity="0.5" x1="71.001" y1="230.892" x2="318.448" y2="230.892" stroke="#F8F9FA"/>
<rect x="286.311" y="257.1" width="32.1359" height="17.1392" rx="8.56958" fill="#F8F9FA"/>
<rect x="288.453" y="259.243" width="12.8544" height="12.8544" rx="6.42718" fill="white"/>
<circle opacity="0.5" cx="88.7327" cy="265.193" r="17.7327" fill="#F8F9FA"/>
<rect x="115.99" y="254.958" width="109.262" height="3.74919" rx="1.8746" fill="#F8F9FA"/>
<rect x="115.99" y="271.026" width="71.7702" height="3.74919" rx="1.8746" fill="#F8F9FA"/>
<rect x="286.311" y="191.641" width="32.1359" height="17.1392" rx="8.56958" fill="#F8F9FA"/>
<rect x="288.453" y="193.784" width="12.8544" height="12.8544" rx="6.42718" fill="white"/>
<circle opacity="0.5" cx="88.7327" cy="199.733" r="17.7327" fill="#F8F9FA"/>
<rect x="115.99" y="189.499" width="109.262" height="3.74919" rx="1.8746" fill="#F8F9FA"/>
<rect x="115.99" y="205.566" width="71.7702" height="3.74919" rx="1.8746" fill="#F8F9FA"/>
<rect x="286.311" y="324.702" width="32.1359" height="17.1392" rx="8.56958" fill="#F8F9FA"/>
<rect x="288.453" y="326.844" width="12.8544" height="12.8544" rx="6.42718" fill="white"/>
<circle opacity="0.5" cx="88.7327" cy="332.794" r="17.7327" fill="#F8F9FA"/>
<rect x="115.99" y="322.56" width="109.262" height="3.74919" rx="1.8746" fill="#F8F9FA"/>
<rect x="115.99" y="338.627" width="71.7702" height="3.74919" rx="1.8746" fill="#F8F9FA"/>
<g filter="url(#filter2_d_1052_18296)">
<circle cx="194" cy="174" r="42" fill="white"/>
<circle cx="194" cy="174" r="41.75" stroke="#EBEBF0" stroke-width="0.5"/>
</g>
<path d="M197.021 193.8V175.736H203.389L204.342 168.697H197.02V164.202C197.02 162.164 197.615 160.775 200.685 160.775L204.6 160.773V154.477C203.923 154.391 201.598 154.2 198.895 154.2C193.249 154.2 189.385 157.48 189.385 163.505V168.697H183V175.736H189.385V193.8H197.021V193.8Z" fill="#408BFC"/>
<g filter="url(#filter3_d_1052_18296)">
<circle cx="295" cy="125" r="29" fill="white"/>
<circle cx="295" cy="125" r="28.75" stroke="#EBEBF0" stroke-width="0.5"/>
</g>
<path d="M299.598 114.372V114.367H300.88L301.348 114.46C301.661 114.521 301.944 114.601 302.199 114.699C302.454 114.798 302.7 114.912 302.939 115.044C303.177 115.175 303.393 115.309 303.587 115.445C303.779 115.58 303.952 115.723 304.105 115.874C304.256 116.026 304.492 116.066 304.812 115.992C305.133 115.918 305.478 115.815 305.848 115.684C306.218 115.553 306.584 115.405 306.945 115.241C307.307 115.077 307.527 114.972 307.606 114.928C307.683 114.882 307.724 114.858 307.729 114.854L307.734 114.847L307.759 114.835L307.783 114.822L307.808 114.81L307.833 114.798L307.838 114.79L307.845 114.785L307.852 114.78L307.857 114.773L307.882 114.766L307.907 114.761L307.902 114.798L307.894 114.835L307.882 114.871L307.87 114.908L307.857 114.933L307.845 114.958L307.833 114.995C307.824 115.019 307.816 115.052 307.808 115.093C307.8 115.134 307.722 115.298 307.574 115.585C307.426 115.873 307.241 116.164 307.019 116.46C306.797 116.755 306.598 116.978 306.422 117.129C306.245 117.282 306.127 117.389 306.07 117.449C306.012 117.512 305.942 117.569 305.86 117.622L305.737 117.703L305.712 117.715L305.688 117.728L305.683 117.735L305.675 117.74L305.668 117.745L305.663 117.752L305.638 117.764L305.614 117.777L305.609 117.784L305.601 117.789L305.594 117.794L305.589 117.801L305.584 117.809L305.577 117.814L305.569 117.819L305.564 117.826H305.688L306.378 117.678C306.838 117.58 307.278 117.461 307.697 117.321L308.363 117.1L308.437 117.075L308.474 117.063L308.498 117.05L308.523 117.038L308.548 117.026L308.572 117.013L308.622 117.006L308.671 117.001V117.05L308.659 117.055L308.646 117.063L308.641 117.07L308.634 117.075L308.627 117.08L308.622 117.087L308.617 117.095L308.609 117.1L308.602 117.105L308.597 117.112L308.592 117.119L308.585 117.124L308.572 117.149L308.56 117.174L308.553 117.178C308.549 117.183 308.445 117.323 308.24 117.597C308.034 117.873 307.923 118.012 307.907 118.016C307.89 118.021 307.867 118.045 307.838 118.089C307.81 118.135 307.635 118.318 307.315 118.639C306.994 118.959 306.681 119.243 306.373 119.493C306.064 119.744 305.908 120.053 305.905 120.419C305.9 120.783 305.881 121.195 305.848 121.655C305.815 122.114 305.753 122.611 305.663 123.144C305.573 123.678 305.433 124.281 305.244 124.954C305.055 125.627 304.825 126.283 304.554 126.924C304.282 127.564 303.999 128.138 303.703 128.647C303.407 129.156 303.136 129.587 302.889 129.94C302.643 130.293 302.392 130.625 302.137 130.937C301.883 131.249 301.56 131.6 301.171 131.991C300.78 132.38 300.566 132.593 300.53 132.631C300.492 132.667 300.331 132.802 300.047 133.035C299.764 133.269 299.46 133.504 299.134 133.739C298.81 133.972 298.513 134.166 298.242 134.322C297.971 134.478 297.643 134.656 297.26 134.857C296.879 135.058 296.467 135.246 296.023 135.418C295.579 135.59 295.111 135.75 294.617 135.898C294.124 136.046 293.648 136.161 293.187 136.243C292.727 136.325 292.205 136.395 291.622 136.452L290.746 136.538V136.551H289.144V136.538L288.934 136.526C288.795 136.518 288.68 136.509 288.589 136.501C288.499 136.493 288.158 136.448 287.566 136.366C286.974 136.284 286.51 136.202 286.173 136.12C285.836 136.038 285.335 135.882 284.669 135.652C284.003 135.422 283.434 135.19 282.96 134.955C282.489 134.722 282.193 134.574 282.073 134.512C281.954 134.451 281.821 134.376 281.673 134.285L281.451 134.15L281.446 134.143L281.439 134.138L281.432 134.133L281.427 134.125L281.402 134.113L281.377 134.101L281.373 134.093L281.365 134.088L281.358 134.083L281.353 134.076L281.348 134.069L281.34 134.064H281.328V134.015L281.353 134.019L281.377 134.027L281.488 134.039C281.562 134.047 281.764 134.06 282.092 134.076C282.421 134.093 282.77 134.093 283.14 134.076C283.51 134.06 283.888 134.023 284.274 133.965C284.661 133.908 285.117 133.809 285.643 133.67C286.169 133.53 286.652 133.365 287.093 133.172C287.531 132.979 287.844 132.834 288.029 132.739C288.214 132.646 288.495 132.472 288.873 132.217L289.44 131.836L289.445 131.828L289.452 131.823L289.46 131.818L289.464 131.811L289.469 131.804L289.477 131.799L289.484 131.794L289.489 131.786L289.514 131.779L289.538 131.774L289.543 131.749L289.551 131.725L289.558 131.72L289.563 131.712L289.366 131.7C289.234 131.692 289.107 131.684 288.984 131.676C288.86 131.667 288.667 131.63 288.404 131.565C288.141 131.499 287.858 131.401 287.554 131.269C287.25 131.138 286.954 130.982 286.666 130.801C286.378 130.621 286.17 130.471 286.042 130.351C285.916 130.233 285.751 130.065 285.549 129.849C285.349 129.63 285.174 129.406 285.026 129.176C284.879 128.947 284.737 128.682 284.602 128.381L284.398 127.933L284.385 127.896L284.373 127.859L284.366 127.835L284.361 127.81L284.398 127.815L284.435 127.822L284.706 127.859C284.887 127.884 285.17 127.892 285.557 127.884C285.943 127.876 286.21 127.859 286.358 127.835C286.506 127.81 286.596 127.794 286.629 127.785L286.678 127.773L286.74 127.761L286.802 127.748L286.807 127.741L286.814 127.736L286.821 127.731L286.826 127.724L286.777 127.711L286.728 127.699L286.678 127.687L286.629 127.675L286.58 127.662C286.547 127.654 286.489 127.638 286.407 127.613C286.325 127.588 286.103 127.498 285.741 127.342C285.38 127.186 285.092 127.034 284.879 126.887C284.664 126.738 284.46 126.576 284.267 126.402C284.075 126.224 283.864 125.996 283.633 125.717C283.403 125.438 283.198 125.114 283.017 124.745C282.836 124.375 282.701 124.022 282.61 123.686C282.52 123.351 282.461 123.009 282.433 122.664L282.388 122.147L282.413 122.152L282.438 122.159L282.462 122.172L282.487 122.184L282.512 122.196L282.536 122.209L282.918 122.381C283.173 122.496 283.49 122.594 283.868 122.676C284.246 122.758 284.472 122.804 284.546 122.812L284.657 122.824H284.879L284.874 122.817L284.866 122.812L284.859 122.807L284.854 122.8L284.849 122.792L284.842 122.787L284.834 122.782L284.829 122.775L284.805 122.763L284.78 122.75L284.775 122.743L284.768 122.738L284.76 122.733L284.755 122.726L284.731 122.713L284.706 122.701L284.701 122.694C284.696 122.69 284.625 122.638 284.489 122.536C284.354 122.433 284.213 122.299 284.065 122.135C283.917 121.971 283.769 121.798 283.621 121.618C283.473 121.437 283.341 121.243 283.227 121.039C283.112 120.834 282.99 120.573 282.862 120.256C282.735 119.941 282.639 119.623 282.573 119.303C282.507 118.983 282.471 118.667 282.462 118.355C282.454 118.043 282.462 117.777 282.487 117.555C282.512 117.334 282.561 117.083 282.635 116.804C282.709 116.525 282.816 116.23 282.955 115.918L283.165 115.45L283.177 115.413L283.19 115.376L283.197 115.371L283.202 115.364L283.207 115.356L283.214 115.352L283.222 115.356L283.227 115.364L283.232 115.371L283.239 115.376L283.246 115.381L283.251 115.388L283.256 115.396L283.264 115.401L283.276 115.425L283.288 115.45L283.296 115.455L283.301 115.462L283.633 115.832C283.855 116.078 284.118 116.353 284.422 116.656C284.726 116.96 284.895 117.118 284.928 117.129C284.961 117.142 285.002 117.18 285.051 117.242C285.1 117.303 285.265 117.448 285.544 117.678C285.824 117.908 286.189 118.175 286.641 118.478C287.093 118.782 287.595 119.082 288.145 119.377C288.696 119.673 289.288 119.939 289.921 120.177C290.553 120.415 290.997 120.571 291.252 120.645C291.507 120.719 291.942 120.813 292.559 120.928C293.175 121.043 293.639 121.117 293.952 121.15C294.264 121.183 294.478 121.202 294.593 121.207L294.765 121.211L294.76 121.175L294.753 121.138L294.704 120.83C294.671 120.625 294.654 120.337 294.654 119.968C294.654 119.599 294.683 119.258 294.741 118.946C294.798 118.634 294.885 118.318 295 117.998C295.115 117.678 295.227 117.421 295.337 117.228C295.449 117.036 295.595 116.817 295.776 116.57C295.957 116.324 296.191 116.07 296.479 115.807C296.767 115.544 297.095 115.311 297.465 115.105C297.835 114.9 298.176 114.744 298.488 114.638C298.801 114.531 299.064 114.461 299.277 114.428C299.491 114.395 299.598 114.377 299.598 114.372V114.372Z" fill="#408BFC"/>
<g filter="url(#filter4_d_1052_18296)">
<circle cx="195" cy="63.5" r="32.5" fill="white"/>
<circle cx="195" cy="63.5" r="32.25" stroke="#EBEBF0" stroke-width="0.5"/>
</g>
<path d="M195.716 74.9022L189.08 74.7781C186.932 74.7349 184.778 74.8212 182.671 74.3734C179.467 73.7045 179.24 70.4244 179.002 67.673C178.675 63.8049 178.802 59.8666 179.42 56.0308C179.768 53.8785 181.14 52.5942 183.263 52.4544C190.427 51.9473 197.638 52.0074 204.786 52.244C205.541 52.2657 206.301 52.3842 207.046 52.5192C210.72 53.1774 210.81 56.8945 211.048 60.0236C211.285 63.1849 211.185 66.3625 210.731 69.5024C210.367 72.1021 209.67 74.2822 206.729 74.4927C203.044 74.7679 199.443 74.9894 195.748 74.9189C195.748 74.9022 195.727 74.9022 195.716 74.9022ZM191.815 68.3204C194.592 66.6911 197.316 65.0889 200.077 63.4704C197.295 61.841 194.576 60.2388 191.815 58.6204V68.3204Z" fill="#DBDBDD"/>
<g filter="url(#filter5_d_1052_18296)">
<circle cx="107.5" cy="256.5" r="28.5" fill="white"/>
<circle cx="107.5" cy="256.5" r="28.25" stroke="#EBEBF0" stroke-width="0.5"/>
</g>
<path fill-rule="evenodd" clip-rule="evenodd" d="M107.491 266.425H112.749L119.754 259.42V243.064H95.8111L94.0645 247.74V266.425H100.487V269.936H103.989L107.491 266.425ZM117.425 245.402V258.256L113.331 262.34H106.909L103.407 265.843V262.34H98.1489V245.402H117.425ZM110.993 257.091V250.078H113.331V257.091H110.993ZM106.909 257.082H104.571V250.078H106.909V257.082Z" fill="#408BFC"/>
<g filter="url(#filter6_d_1052_18296)">
<circle cx="275.5" cy="271.5" r="26.5" fill="white"/>
<circle cx="275.5" cy="271.5" r="26.25" stroke="#EBEBF0" stroke-width="0.5"/>
</g>
<path d="M268.476 269.085C268.21 269.862 268.076 270.678 268.078 271.499C268.078 272.415 268.242 273.294 268.547 274.105C269.987 277.947 274.268 279.893 278.11 278.453C278.506 278.304 278.888 278.123 279.253 277.909H279.254C280.726 277.046 281.856 275.704 282.458 274.107H275.777V269.165H287.777C288.087 270.8 288.068 272.48 287.722 274.108C287.122 276.921 285.568 279.44 283.324 281.241C281.108 283.026 278.347 283.996 275.503 283.992C268.604 283.996 263.01 278.407 263.006 271.509C263.005 269.506 263.485 267.532 264.406 265.753C266.554 261.607 270.833 259.004 275.503 259.006C278.533 259.006 281.313 260.086 283.477 261.882L279.43 265.195C275.945 263.026 271.363 264.094 269.194 267.577C268.899 268.051 268.658 268.558 268.476 269.085Z" fill="#DBDBDD"/>
</g>
<defs>
<filter id="filter0_d_1052_18296" x="43" y="75" width="101" height="101" filterUnits="userSpaceOnUse" color-interpolation-filters="sRGB">
<feFlood flood-opacity="0" result="BackgroundImageFix"/>
<feColorMatrix in="SourceAlpha" type="matrix" values="0 0 0 0 0 0 0 0 0 0 0 0 0 0 0 0 0 0 127 0" result="hardAlpha"/>
<feOffset dy="6"/>
<feGaussianBlur stdDeviation="10"/>
<feComposite in2="hardAlpha" operator="out"/>
<feColorMatrix type="matrix" values="0 0 0 0 0.12549 0 0 0 0 0.117647 0 0 0 0 0.247059 0 0 0 0.04 0"/>
<feBlend mode="normal" in2="BackgroundImageFix" result="effect1_dropShadow_1052_18296"/>
<feBlend mode="normal" in="SourceGraphic" in2="effect1_dropShadow_1052_18296" result="shape"/>
</filter>
<filter id="filter1_d_1052_18296" x="25" y="126" width="339" height="420" filterUnits="userSpaceOnUse" color-interpolation-filters="sRGB">
<feFlood flood-opacity="0" result="BackgroundImageFix"/>
<feColorMatrix in="SourceAlpha" type="matrix" values="0 0 0 0 0 0 0 0 0 0 0 0 0 0 0 0 0 0 127 0" result="hardAlpha"/>
<feOffset dy="6"/>
<feGaussianBlur stdDeviation="10"/>
<feComposite in2="hardAlpha" operator="out"/>
<feColorMatrix type="matrix" values="0 0 0 0 0.12549 0 0 0 0 0.117647 0 0 0 0 0.247059 0 0 0 0.04 0"/>
<feBlend mode="normal" in2="BackgroundImageFix" result="effect1_dropShadow_1052_18296"/>
<feBlend mode="normal" in="SourceGraphic" in2="effect1_dropShadow_1052_18296" result="shape"/>
</filter>
<filter id="filter2_d_1052_18296" x="132" y="118" width="124" height="124" filterUnits="userSpaceOnUse" color-interpolation-filters="sRGB">
<feFlood flood-opacity="0" result="BackgroundImageFix"/>
<feColorMatrix in="SourceAlpha" type="matrix" values="0 0 0 0 0 0 0 0 0 0 0 0 0 0 0 0 0 0 127 0" result="hardAlpha"/>
<feOffset dy="6"/>
<feGaussianBlur stdDeviation="10"/>
<feComposite in2="hardAlpha" operator="out"/>
<feColorMatrix type="matrix" values="0 0 0 0 0.12549 0 0 0 0 0.117647 0 0 0 0 0.247059 0 0 0 0.04 0"/>
<feBlend mode="normal" in2="BackgroundImageFix" result="effect1_dropShadow_1052_18296"/>
<feBlend mode="normal" in="SourceGraphic" in2="effect1_dropShadow_1052_18296" result="shape"/>
</filter>
<filter id="filter3_d_1052_18296" x="246" y="82" width="98" height="98" filterUnits="userSpaceOnUse" color-interpolation-filters="sRGB">
<feFlood flood-opacity="0" result="BackgroundImageFix"/>
<feColorMatrix in="SourceAlpha" type="matrix" values="0 0 0 0 0 0 0 0 0 0 0 0 0 0 0 0 0 0 127 0" result="hardAlpha"/>
<feOffset dy="6"/>
<feGaussianBlur stdDeviation="10"/>
<feComposite in2="hardAlpha" operator="out"/>
<feColorMatrix type="matrix" values="0 0 0 0 0.12549 0 0 0 0 0.117647 0 0 0 0 0.247059 0 0 0 0.04 0"/>
<feBlend mode="normal" in2="BackgroundImageFix" result="effect1_dropShadow_1052_18296"/>
<feBlend mode="normal" in="SourceGraphic" in2="effect1_dropShadow_1052_18296" result="shape"/>
</filter>
<filter id="filter4_d_1052_18296" x="142.5" y="17" width="105" height="105" filterUnits="userSpaceOnUse" color-interpolation-filters="sRGB">
<feFlood flood-opacity="0" result="BackgroundImageFix"/>
<feColorMatrix in="SourceAlpha" type="matrix" values="0 0 0 0 0 0 0 0 0 0 0 0 0 0 0 0 0 0 127 0" result="hardAlpha"/>
<feOffset dy="6"/>
<feGaussianBlur stdDeviation="10"/>
<feComposite in2="hardAlpha" operator="out"/>
<feColorMatrix type="matrix" values="0 0 0 0 0.12549 0 0 0 0 0.117647 0 0 0 0 0.247059 0 0 0 0.04 0"/>
<feBlend mode="normal" in2="BackgroundImageFix" result="effect1_dropShadow_1052_18296"/>
<feBlend mode="normal" in="SourceGraphic" in2="effect1_dropShadow_1052_18296" result="shape"/>
</filter>
<filter id="filter5_d_1052_18296" x="59" y="214" width="97" height="97" filterUnits="userSpaceOnUse" color-interpolation-filters="sRGB">
<feFlood flood-opacity="0" result="BackgroundImageFix"/>
<feColorMatrix in="SourceAlpha" type="matrix" values="0 0 0 0 0 0 0 0 0 0 0 0 0 0 0 0 0 0 127 0" result="hardAlpha"/>
<feOffset dy="6"/>
<feGaussianBlur stdDeviation="10"/>
<feComposite in2="hardAlpha" operator="out"/>
<feColorMatrix type="matrix" values="0 0 0 0 0.12549 0 0 0 0 0.117647 0 0 0 0 0.247059 0 0 0 0.04 0"/>
<feBlend mode="normal" in2="BackgroundImageFix" result="effect1_dropShadow_1052_18296"/>
<feBlend mode="normal" in="SourceGraphic" in2="effect1_dropShadow_1052_18296" result="shape"/>
</filter>
<filter id="filter6_d_1052_18296" x="229" y="231" width="93" height="93" filterUnits="userSpaceOnUse" color-interpolation-filters="sRGB">
<feFlood flood-opacity="0" result="BackgroundImageFix"/>
<feColorMatrix in="SourceAlpha" type="matrix" values="0 0 0 0 0 0 0 0 0 0 0 0 0 0 0 0 0 0 127 0" result="hardAlpha"/>
<feOffset dy="6"/>
<feGaussianBlur stdDeviation="10"/>
<feComposite in2="hardAlpha" operator="out"/>
<feColorMatrix type="matrix" values="0 0 0 0 0.12549 0 0 0 0 0.117647 0 0 0 0 0.247059 0 0 0 0.04 0"/>
<feBlend mode="normal" in2="BackgroundImageFix" result="effect1_dropShadow_1052_18296"/>
<feBlend mode="normal" in="SourceGraphic" in2="effect1_dropShadow_1052_18296" result="shape"/>
</filter>
</defs>
</svg>
